<svg xmlns="http://www.w3.org/2000/svg" width="272" height="236" viewBox="0 0 272 236">
<g>
<path d="M 170.21,44.46 L 172.25,44.70 L 176.32,45.74 L 178.34,46.34 L 182.12,48.04 L 187.11,51.21 L 188.21,52.09 L 190.11,54.14 L 191.02,55.21 L 192.53,57.57 L 193.23,58.79 L 194.33,61.41 L 194.83,62.74 L 195.51,65.53 L 195.80,66.94 L 196.04,69.84 L 196.11,71.30 L 195.90,74.23 L 195.74,75.69 L 195.06,78.59 L 193.51,82.81 L 192.59,84.78 L 190.43,88.37 L 189.25,90.14 L 186.24,93.69 L 185.42,94.60 L 183.53,96.50 L 182.54,97.46 L 180.28,99.52 L 179.10,100.58 L 176.42,102.87 L 171.86,106.61 L 170.57,107.65 L 168.18,109.63 L 167.01,110.60 L 164.84,112.47 L 162.72,114.31 L 159.09,117.78 L 157.35,119.50 L 154.38,122.90 L 152.96,124.61 L 150.51,128.15 L 149.33,129.96 L 147.24,133.87 L 146.23,135.89 L 144.37,140.39 L 143.46,142.74 L 141.68,148.05 L 141.24,149.44 L 140.33,152.41 L 138.95,157.19 L 138.44,158.99 L 137.46,162.24 L 136.97,163.80 L 136.02,166.62 L 135.54,167.98 L 134.58,170.44 L 134.10,171.63 L 133.11,173.79 L 132.10,175.89 L 129.85,179.47 L 125.86,184.46 L 124.42,186.04 L 121.25,188.82 L 119.61,190.15 L 116.04,192.45 L 114.21,193.54 L 110.25,195.35 L 108.22,196.19 L 103.87,197.52 L 101.64,198.12 L 96.90,198.95 L 94.48,199.31 L 89.35,199.66 L 86.73,199.77 L 81.21,199.63 L 78.41,199.50 L 72.50,198.87 L 71.36,198.73 L 68.75,198.27 L 67.40,198.02 L 64.47,197.38 L 61.48,196.69 L 55.10,194.90 L 51.92,193.97 L 45.93,191.91 L 44.51,191.40 L 41.91,190.37 L 38.52,188.86 L 36.83,188.04 L 33.56,186.14 L 31.97,185.18 L 29.23,183.25 L 28.59,182.78 L 27.50,181.88 L 26.98,181.44 L 26.16,180.65 L 25.79,180.26 L 25.30,179.60 L 25.00,178.81 L 25.00,178.48 L 25.53,178.20 L 25.73,178.17 L 26.32,178.21 L 26.66,178.26 L 27.58,178.47 L 28.09,178.60 L 29.40,178.99 L 30.11,179.21 L 31.87,179.79 L 32.80,180.11 L 35.06,180.90 L 39.08,182.34 L 42.59,183.62 L 49.17,185.57 L 52.44,186.46 L 58.96,187.73 L 62.27,188.28 L 69.29,188.94 L 71.10,189.08 L 74.92,189.25 L 81.00,189.37 L 83.05,189.38 L 86.70,189.33 L 88.46,189.29 L 91.59,189.13 L 93.10,189.03 L 95.80,188.73 L 97.11,188.56 L 99.48,188.10 L 100.63,187.85 L 102.77,187.21 L 103.82,186.87 L 105.81,186.04 L 111.74,182.68 L 112.69,182.05 L 114.45,180.64 L 115.31,179.90 L 116.92,178.27 L 117.70,177.42 L 119.16,175.53 L 119.88,174.54 L 121.23,172.34 L 121.89,171.20 L 123.15,168.66 L 123.77,167.34 L 124.95,164.41 L 125.54,162.90 L 126.68,159.55 L 128.37,154.00 L 128.91,152.09 L 130.27,147.87 L 130.99,145.73 L 132.56,141.38 L 133.36,139.23 L 134.98,135.22 L 137.28,130.06 L 137.82,128.96 L 138.80,127.01 L 139.28,126.07 L 140.19,124.40 L 141.09,122.79 L 142.91,120.06 L 143.85,118.72 L 146.10,116.09 L 146.71,115.40 L 148.08,113.95 L 150.43,111.56 L 151.54,110.45 L 154.35,107.76 L 155.82,106.36 L 159.05,103.37 L 160.69,101.87 L 163.95,98.94 L 168.46,95.00 L 170.05,93.64 L 172.79,91.22 L 174.09,90.04 L 176.30,87.93 L 177.34,86.91 L 179.07,85.04 L 179.88,84.12 L 181.19,82.41 L 181.79,81.57 L 182.73,79.93 L 183.16,79.12 L 183.79,77.49 L 184.07,76.67 L 184.44,74.97 L 184.77,72.26 L 184.86,71.05 L 184.89,69.19 L 184.87,68.33 L 184.66,66.92 L 184.52,66.25 L 184.00,65.01 L 182.81,63.02 L 181.95,61.75 L 179.88,59.67 L 178.80,58.70 L 176.36,57.21 L 175.10,56.54 L 172.40,55.66 L 171.03,55.29 L 168.17,55.01 L 166.73,54.95 L 163.81,55.28 L 162.36,55.52 L 159.50,56.47 L 158.09,57.02 L 155.39,58.59 L 151.63,61.64 L 151.02,62.25 L 150.17,63.26 L 149.80,63.75 L 149.39,64.69 L 149.23,65.18 L 149.16,66.33 L 149.35,68.55 L 149.39,68.83 L 149.57,69.60 L 149.67,70.01 L 149.97,71.01 L 150.29,72.07 L 151.23,74.71 L 151.74,76.09 L 152.95,79.14 L 154.91,83.69 L 153.06,79.49 L 151.92,76.79 L 151.47,75.65 L 150.65,73.55 L 150.39,72.81 L 150.17,72.14 L 150.10,71.89 L 150.00,71.48 L 150.00,71.38 L 149.58,70.11 L 148.92,69.54 L 148.45,69.41 L 147.45,69.26 L 146.86,69.35 L 145.66,69.65 L 145.03,69.98 L 143.60,71.27 L 143.44,71.76 L 142.71,69.00 L 142.64,68.79 L 142.46,67.99 L 142.37,67.54 L 142.19,66.36 L 141.71,62.13 L 141.61,60.92 L 141.56,59.15 L 141.57,58.35 L 141.82,57.09 L 141.99,56.49 L 142.65,55.37 L 144.20,53.42 L 145.20,52.29 L 147.95,50.19 L 149.43,49.18 L 152.88,47.44 L 154.67,46.64 L 158.49,45.42 L 164.27,44.35 L 166.17,44.18 M 81.38,172.31 L 82.36,172.39 L 84.30,172.93 L 85.25,173.26 L 87.00,174.23 L 87.83,174.75 L 89.19,176.01 L 89.81,176.67 L 90.60,178.11 L 90.91,178.84 L 90.95,180.35 L 89.95,182.56 L 89.58,183.01 L 88.24,183.57 L 87.50,183.80 L 85.63,183.90 L 84.65,183.90 L 82.50,183.55 L 81.41,183.32 L 79.25,182.51 L 78.36,182.12 L 76.60,180.73 L 76.19,180.36 L 75.51,179.58 L 74.79,178.43 L 74.52,177.84 L 74.21,176.95 L 74.11,176.54 L 74.17,175.88 L 74.26,175.56 L 74.75,174.92 L 76.01,173.79 L 76.76,173.18 L 78.53,172.54 L 79.44,172.30 M 61.45,173.45 L 62.69,173.70 L 64.75,174.43 L 65.70,174.84 L 67.13,175.86 L 67.76,176.41 L 68.51,177.68 L 68.81,179.81 L 68.75,180.36 L 68.53,181.17 L 68.40,181.53 L 67.98,182.02 L 67.73,182.23 L 67.01,182.49 L 65.50,182.71 L 64.67,182.77 L 62.43,182.38 L 61.30,182.12 L 59.26,181.28 L 58.48,180.89 L 57.29,179.99 L 56.75,179.53 L 56.02,178.55 L 55.72,178.05 L 55.43,177.07 L 55.35,176.59 L 55.49,175.69 L 55.61,175.26 L 56.15,174.52 L 56.47,174.18 L 57.38,173.68 L 57.89,173.46 L 59.16,173.28 M 109.65,168.27 L 110.26,168.36 L 111.11,169.00 L 111.80,170.63 L 111.88,171.20 L 111.52,172.37 L 111.27,172.95 L 110.36,174.08 L 109.86,174.63 L 108.58,175.62 L 107.92,176.10 L 106.44,176.88 L 105.69,177.24 L 104.19,177.73 L 103.45,177.93 L 102.09,178.04 L 101.45,178.05 L 100.41,177.70 L 99.94,177.46 L 99.39,176.58 L 99.17,176.01 L 99.28,174.78 L 99.42,174.16 L 100.17,172.91 L 100.63,172.29 L 101.95,171.11 L 104.51,169.56 L 105.60,169.04 L 107.44,168.46 L 108.30,168.25 M 33.58,161.23 L 34.14,161.39 L 35.28,161.88 L 36.41,162.44 L 38.53,164.11 L 39.53,165.00 L 41.01,167.03 L 41.32,167.54 L 41.74,168.55 L 42.00,170.00 L 42.00,170.81 L 41.55,172.17 L 40.42,173.39 L 39.98,173.56 L 39.25,173.80 L 38.67,173.94 L 38.62,173.92 L 37.82,173.60 L 37.33,173.41 L 36.00,172.88 L 34.91,172.44 L 33.07,171.31 L 32.21,170.71 L 30.86,169.29 L 30.26,168.56 L 29.48,166.93 L 29.00,164.33 L 29.00,163.57 L 29.08,162.53 L 29.15,162.08 L 29.47,161.53 L 29.68,161.30 L 30.37,161.09 L 31.97,161.00 L 32.48,161.00 M 115.02,153.27 L 115.43,153.41 L 116.00,154.10 L 116.23,154.49 L 116.35,155.51 L 115.90,157.20 L 115.64,157.67 L 115.12,158.33 L 114.86,158.61 L 114.33,158.89 L 114.06,158.99 L 113.51,158.90 L 113.23,158.80 L 112.67,158.33 L 112.35,158.02 L 112.06,157.11 L 111.96,156.63 L 112.06,155.59 L 112.16,155.08 L 112.60,154.19 L 113.60,153.32 L 114.13,153.12 M 45.61,119.31 L 47.29,121.48 L 50.76,125.72 L 52.66,127.63 L 55.59,130.49 L 57.37,132.17 L 58.12,132.84 L 59.51,134.04 L 59.99,134.42 L 60.44,134.75 L 60.60,134.85 L 60.87,135.00 L 60.93,135.00 L 61.97,135.37 L 62.82,135.92 L 63.18,136.27 L 63.99,136.89 L 64.74,137.35 L 65.19,137.60 L 67.20,138.63 L 68.34,139.13 L 70.57,140.06 L 70.38,140.00 L 67.00,138.71 L 66.18,138.36 L 64.92,137.93 L 64.32,137.77 L 63.13,137.77 L 62.49,137.83 L 60.89,138.29 L 60.44,138.44 L 59.38,138.82 L 57.50,139.55 L 55.73,140.24 L 51.54,141.85 L 49.36,142.68 L 44.62,144.46 L 39.81,146.26 L 30.01,149.85 L 27.66,150.71 L 23.36,152.26 L 21.30,152.99 L 17.85,154.21 L 17.05,154.49 L 15.68,154.96 L 15.03,155.18 L 13.99,155.52 L 13.52,155.67 L 12.85,155.88 L 12.32,156.00 L 12.00,156.00 L 11.03,155.54 L 10.53,155.25 L 9.57,154.43 L 9.01,153.87 L 8.36,152.50 L 8.11,151.80 L 8.06,150.35 L 8.10,149.64 L 8.64,148.37 L 10.07,146.96 L 10.21,146.89 L 10.90,146.59 L 11.30,146.41 L 12.46,145.94 L 13.09,145.69 L 14.67,145.06 L 15.50,144.74 L 17.43,143.99 L 18.44,143.60 L 20.66,142.75 L 21.80,142.31 L 24.26,141.38 L 32.22,138.39 L 34.98,137.37 L 40.08,135.46 L 41.30,135.00 L 43.57,134.14 L 44.67,133.73 L 46.65,132.97 L 47.59,132.61 L 49.23,131.98 L 50.00,131.69 L 51.23,131.20 L 51.79,130.98 L 52.56,130.67 L 53.14,130.41 L 53.26,130.34 L 53.07,129.74 L 52.92,129.37 L 52.27,128.29 L 51.90,127.70 L 50.87,126.27 L 49.00,123.90 L 47.82,122.48 L 45.56,119.32 L 44.46,117.70 L 42.90,115.06 M 77.32,131.02 L 76.71,141.72 L 74.72,141.24 L 75.32,141.30 L 75.61,141.12 L 75.89,140.90 L 76.00,140.69 L 76.21,140.23 L 76.31,139.89 L 76.48,139.13 L 76.56,138.61 L 76.70,137.49 L 76.78,136.77 L 76.92,135.22 L 76.99,134.27 L 77.14,132.24 L 77.22,131.02 L 78.31,121.90 M 247.71,116.38 L 247.00,117.91 L 246.83,118.23 L 246.53,118.66 L 246.17,118.92 L 246.11,118.91 L 246.45,118.64 L 246.78,118.17 L 246.97,117.83 L 247.73,116.33 M 232.83,113.39 L 237.08,114.79 L 238.48,115.46 L 236.62,114.74 L 235.65,114.38 L 233.55,113.75 L 231.42,113.14 L 231.41,113.13 M 224.41,74.55 L 225.27,74.66 L 227.47,75.14 L 228.64,75.42 L 231.34,76.17 L 232.73,76.58 L 235.78,77.56 L 237.33,78.07 L 240.58,79.22 L 243.85,80.40 L 250.37,83.05 L 251.95,83.72 L 254.92,85.06 L 258.94,87.03 L 260.11,87.64 L 262.02,88.64 L 262.90,89.12 L 264.26,89.96 L 264.88,90.38 L 265.75,91.23 L 266.13,91.67 L 266.55,92.66 L 266.70,93.19 L 266.71,94.48 L 266.67,95.17 L 266.32,96.91 L 266.10,97.84 L 265.43,100.17 L 264.11,104.50 L 263.73,105.73 L 263.13,107.71 L 262.84,108.64 L 262.34,110.07 L 262.09,110.73 L 261.60,111.69 L 261.34,112.12 L 260.75,112.67 L 260.44,112.91 L 259.65,113.13 L 259.23,113.21 L 258.15,113.17 L 257.57,113.13 L 256.11,112.91 L 253.37,112.45 L 252.35,112.28 L 250.98,112.13 L 250.38,112.09 L 249.62,112.33 L 249.28,112.52 L 249.17,112.69 L 249.77,111.17 L 243.56,110.08 L 240.63,109.66 L 238.42,109.42 L 237.28,109.32 L 234.98,109.15 L 233.90,109.09 L 231.80,109.01 L 230.92,109.01 L 226.89,109.12 L 224.63,109.29 L 223.73,109.41 L 222.08,109.67 L 221.50,109.82 L 220.50,110.14 L 220.26,110.32 L 219.95,110.67 L 220.06,110.85 L 220.49,111.21 L 220.99,111.38 L 222.19,111.71 L 222.46,111.76 L 221.18,111.71 L 220.34,111.71 L 218.97,111.84 L 217.48,112.27 L 216.96,112.56 L 215.96,112.69 L 215.47,112.68 L 214.55,112.24 L 214.10,111.95 L 213.28,110.98 L 212.88,110.44 L 212.18,108.99 L 211.84,108.21 L 211.27,106.33 L 211.00,105.34 L 210.58,103.07 L 210.39,101.89 L 210.15,99.27 L 210.00,95.00 L 210.00,93.70 L 210.07,91.39 L 210.12,90.28 L 210.29,88.30 L 210.40,87.35 L 210.70,85.65 L 210.86,84.83 L 211.30,83.36 L 211.78,81.95 L 213.23,79.60 L 216.28,76.42 L 216.96,75.85 L 218.06,75.07 L 218.59,74.74 L 219.66,74.39 L 220.22,74.26 L 221.61,74.26 M 83.32,104.80 L 83.91,103.49 L 84.31,102.71 M 86.16,99.50 L 85.53,100.48 L 85.57,100.41 L 86.16,99.50 L 89.40,94.50 M 157.51,99.06 L 157.34,99.18 L 157.68,98.92 M 159.31,97.48 L 159.19,97.59 L 159.32,97.46 M 160.00,96.55 L 159.58,97.15 L 159.47,97.28 L 159.60,97.12 L 160.00,96.53 M 148.00,95.91 L 148.00,95.80 L 148.01,96.21 M 33.33,86.31 L 33.66,90.71 L 34.10,93.01 L 33.97,92.46 L 33.63,90.77 L 33.28,87.62 L 33.29,85.16 M 144.38,77.25 L 144.54,78.29 L 145.38,81.98 L 146.08,84.26 L 145.70,83.15 L 145.45,82.34 L 144.98,80.43 L 144.75,79.41 L 144.28,76.86 L 144.14,76.00 M 33.30,83.87 L 33.30,83.38 L 33.46,81.79 L 33.67,80.84 M 37.45,72.02 L 38.06,71.12 L 38.60,70.37 L 39.86,68.73 L 42.08,65.99 L 38.02,71.21 M 147.57,89.96 L 147.44,89.02 L 147.11,87.36 L 146.55,85.46 L 146.48,85.30 L 146.57,85.51 L 147.12,87.38 L 147.45,89.01 L 147.58,89.95 L 148.00,93.91 L 148.00,93.99 Z" fill="rgba(44,50,61,1)"/>
<path d="M 191.58,102.01 L 193.98,102.67 L 194.59,102.91 L 195.85,103.61 L 196.49,104.00 L 197.86,105.05 L 198.56,105.62 L 200.10,107.06 L 200.90,107.84 L 202.66,109.73 L 203.58,110.73 L 205.64,113.10 L 209.12,117.28 L 209.76,118.07 L 211.26,119.87 L 212.04,120.81 L 213.77,122.86 L 215.54,124.95 L 219.50,129.57 L 221.52,131.90 L 225.59,136.57 L 231.30,143.02 L 232.71,144.59 L 235.09,147.26 L 236.21,148.52 L 238.05,150.65 L 238.91,151.65 L 240.28,153.31 L 240.91,154.10 L 241.88,155.39 L 242.32,155.99 L 242.94,157.00 L 243.21,157.48 L 243.55,158.28 L 243.80,160.38 L 243.74,161.02 L 243.12,162.42 L 242.90,162.79 L 242.28,163.64 L 241.94,164.09 L 241.02,165.12 L 240.51,165.67 L 239.23,166.95 L 238.55,167.62 L 236.86,169.20 L 235.96,170.03 L 233.81,171.96 L 230.00,175.33 L 228.91,176.29 L 226.89,178.05 L 225.91,178.91 L 224.11,180.48 L 222.37,182.00 L 219.45,184.52 L 218.08,185.69 L 215.82,187.58 L 214.77,188.45 L 213.04,189.81 L 212.24,190.44 L 210.92,191.37 L 210.30,191.79 L 209.26,192.39 L 206.59,193.41 L 205.94,193.57 L 204.87,193.62 L 204.35,193.58 L 203.26,193.06 L 202.68,192.71 L 201.22,191.40 L 200.81,191.01 L 199.86,190.05 L 199.36,189.54 L 198.18,188.31 L 197.48,187.57 L 195.94,185.91 L 195.15,185.06 L 193.44,183.19 L 191.70,181.29 L 187.86,177.02 L 183.96,172.65 L 175.86,163.37 L 173.91,161.11 L 170.25,156.84 L 168.49,154.77 L 165.44,151.13 L 164.73,150.28 L 163.47,148.74 L 162.87,148.00 L 161.85,146.72 L 161.37,146.12 L 160.63,145.15 L 159.87,144.07 L 159.00,142.72 L 157.69,140.25 L 157.11,139.04 L 156.40,136.77 L 156.13,135.65 L 156.06,133.47 L 156.11,132.38 L 156.72,130.19 L 157.12,129.08 L 158.45,126.77 L 159.21,125.58 L 161.29,123.04 L 162.43,121.73 L 165.31,118.85 L 170.57,114.02 L 172.06,112.71 L 174.62,110.50 L 175.84,109.45 L 177.93,107.72 L 178.93,106.91 L 180.65,105.61 L 181.47,105.01 L 182.92,104.08 L 183.61,103.65 L 184.87,103.04 L 185.49,102.76 L 186.66,102.40 L 190.32,102.00 M 233.90,109.09 L 234.98,109.15 L 237.28,109.32 L 238.42,109.42 L 240.63,109.66 L 243.56,110.08 L 249.77,111.17 L 248.24,115.08 L 247.81,116.16 L 246.97,117.83 L 246.78,118.17 L 246.45,118.64 L 246.10,118.92 L 246.02,118.91 L 245.37,118.65 L 244.97,118.48 L 243.82,117.97 L 243.19,117.69 L 241.68,116.98 L 240.90,116.62 L 239.18,115.80 L 237.08,114.79 L 232.83,113.39 L 226.43,112.24 L 225.10,112.14 L 223.09,111.86 L 222.19,111.71 L 220.99,111.38 L 220.49,111.21 L 220.06,110.85 L 219.95,110.67 L 220.26,110.32 L 220.50,110.14 L 221.50,109.82 L 222.08,109.67 L 223.73,109.41 L 224.63,109.29 L 226.89,109.12 L 230.92,109.01 L 231.80,109.01 Z" fill="rgba(204,47,57,1)"/>
<path d="M 119.17,12.18 L 119.67,12.37 L 119.95,12.49 L 120.67,12.91 L 121.06,13.15 L 122.02,13.80 L 123.73,15.04 L 125.09,16.03 L 127.24,18.41 L 129.53,22.45 L 130.09,23.91 L 130.53,26.88 L 130.58,27.66 L 130.49,29.34 L 130.40,30.20 L 130.03,32.13 L 129.81,33.13 L 129.14,35.40 L 128.77,36.58 L 127.79,39.27 L 127.26,40.68 L 125.95,43.89 L 123.58,49.37 L 122.60,51.58 L 120.94,55.71 L 120.16,57.72 L 118.90,61.47 L 118.32,63.30 L 117.46,66.67 L 117.07,68.30 L 116.60,71.30 L 116.42,72.75 L 116.34,75.38 L 116.35,76.64 L 116.67,78.90 L 116.88,79.98 L 117.59,81.88 L 119.10,84.31 L 119.56,84.85 L 120.15,85.44 L 120.28,85.54 L 120.48,85.56 L 120.57,85.54 L 120.70,85.30 L 120.76,85.15 L 120.84,84.62 L 120.87,84.31 L 120.92,83.45 L 120.93,82.97 L 120.95,81.74 L 120.97,79.45 L 120.98,77.25 L 121.58,73.20 L 121.98,71.24 L 123.38,67.61 L 124.19,65.84 L 126.42,62.57 L 130.74,58.00 L 131.37,57.45 L 132.54,56.47 L 133.11,56.01 L 134.08,55.27 L 134.53,54.94 L 135.19,54.53 L 135.70,54.36 L 135.75,54.42 L 135.87,55.21 L 135.93,55.71 L 136.05,57.24 L 136.11,58.08 L 136.23,60.15 L 136.36,63.63 L 136.42,65.35 L 136.65,68.37 L 136.80,69.84 L 137.27,72.63 L 137.54,74.03 L 138.31,76.98 L 139.91,82.00 L 140.27,83.06 L 140.88,84.90 L 141.17,85.79 L 141.64,87.34 L 142.07,88.85 L 142.57,91.42 L 142.78,92.70 L 142.91,95.41 L 142.93,96.13 L 142.91,97.74 L 142.83,100.50 L 142.77,102.27 L 142.56,105.12 L 142.43,106.46 L 142.06,108.68 L 141.85,109.74 L 141.26,111.65 L 140.04,114.50 L 139.42,115.77 L 137.93,118.18 L 137.14,119.36 L 135.30,121.62 L 134.34,122.72 L 132.14,124.83 L 130.99,125.87 L 128.41,127.85 L 127.06,128.83 L 124.07,130.69 L 122.53,131.61 L 119.11,133.38 L 117.35,134.25 L 113.50,135.93 L 107.19,138.37 L 106.19,138.74 L 104.27,139.39 L 103.34,139.71 L 101.71,140.23 L 100.94,140.47 L 99.79,140.79 L 98.78,141.00 L 98.63,141.00 L 98.83,140.54 L 99.00,140.25 L 99.76,139.29 L 100.20,138.77 L 101.42,137.45 L 103.64,135.19 L 105.28,133.59 L 108.25,130.13 L 108.91,129.31 L 109.96,127.84 L 110.95,126.12 L 111.25,125.38 L 111.62,124.31 L 111.76,123.83 L 111.77,123.08 L 111.73,122.72 L 111.38,122.07 L 110.39,120.95 L 110.13,120.69 L 109.87,120.52 L 110.22,120.74 L 110.51,121.01 L 112.48,122.53 L 113.54,122.92 L 114.02,122.78 L 114.94,122.28 L 115.41,121.67 L 116.37,120.23 L 116.93,119.13 L 118.90,114.60 L 119.85,111.68 L 120.13,110.34 L 120.54,107.73 L 120.54,106.61 L 120.38,104.51 L 120.08,103.71 L 119.41,102.24 L 118.93,101.64 L 118.60,101.50 L 117.85,101.30 L 117.30,101.33 L 116.06,101.45 L 115.17,101.59 L 111.73,101.63 L 109.50,101.16 L 108.47,100.70 L 106.46,99.64 L 105.59,98.91 L 103.94,97.31 L 103.30,96.33 L 102.55,94.69 L 102.17,93.23 L 102.04,92.30 L 101.82,90.30 L 101.77,89.06 L 101.70,86.43 L 101.73,84.85 L 101.83,81.51 L 101.93,79.55 L 102.19,75.43 L 102.38,73.05 L 102.79,68.08 L 103.06,65.24 L 103.64,59.33 L 103.99,56.00 L 104.70,48.98 L 105.06,44.89 L 105.19,43.09 L 105.42,39.64 L 105.48,38.11 L 105.57,35.17 L 105.56,33.84 L 105.51,31.27 L 105.43,30.07 L 105.24,27.73 L 105.09,26.60 L 104.35,22.14 L 103.76,19.72 L 102.97,16.97 L 102.32,15.66 L 102.00,15.33 L 102.83,15.96 L 103.85,16.78 L 105.67,18.55 L 106.54,19.46 L 108.10,21.45 L 108.85,22.48 L 110.17,24.71 L 110.81,25.86 L 111.91,28.36 L 112.43,29.65 L 113.33,32.44 L 114.47,37.00 L 115.62,42.50 L 117.90,36.50 L 118.53,34.85 L 119.41,30.99 L 119.79,29.01 L 120.15,24.93 L 120.26,22.92 L 120.07,19.22 L 119.99,18.34 L 119.71,16.77 L 119.13,14.75 L 118.96,14.31 L 118.72,13.60 L 118.62,13.27 L 118.55,12.78 L 118.53,12.57 L 118.64,12.31 L 118.71,12.20 L 119.00,12.17 M 102.28,117.86 L 101.96,117.80 L 101.96,117.80 M 93.99,113.26 L 94.25,113.58 L 93.99,113.27 L 93.51,112.61 L 93.51,112.60 M 91.37,107.14 L 91.68,108.19 L 92.32,110.18 L 92.70,111.02 L 93.46,112.51 L 92.70,111.03 L 92.32,110.19 L 91.68,108.20 L 91.37,107.15 L 90.86,104.70 L 90.19,100.45 L 90.86,104.70 M 66.26,13.71 L 66.65,13.80 L 67.64,14.12 L 68.16,14.29 L 69.35,14.75 L 70.58,15.24 L 73.29,16.51 L 77.07,18.58 L 77.98,19.14 L 79.54,20.41 L 80.28,21.07 L 81.51,22.50 L 82.07,23.24 L 82.95,24.82 L 83.35,25.62 L 83.88,27.32 L 84.10,28.19 L 84.27,29.99 L 84.31,30.90 L 84.12,32.78 L 83.98,33.73 L 83.42,35.66 L 82.16,38.61 L 81.86,39.19 L 80.90,40.72 L 80.37,41.54 L 79.05,43.44 L 77.66,45.39 L 74.37,49.64 L 73.55,50.68 L 71.94,52.63 L 71.16,53.58 L 69.72,55.22 L 69.04,55.98 L 67.90,57.14 L 66.69,58.15 L 66.37,58.33 L 65.86,58.43 L 65.62,58.43 L 65.21,58.11 L 65.02,57.89 L 64.64,57.09 L 64.46,56.63 L 64.06,55.27 L 63.74,54.12 L 63.32,51.35 L 63.15,49.92 L 63.04,46.98 L 63.03,45.53 L 63.23,42.89 L 63.89,39.79 L 64.01,39.47 L 64.52,38.54 L 64.81,38.05 L 65.58,36.87 L 68.39,33.13 L 68.98,32.42 L 69.95,31.09 L 70.40,30.44 L 71.07,29.20 L 71.36,28.59 L 71.74,27.42 L 71.89,26.84 L 71.97,25.70 L 71.98,25.13 L 71.76,24.00 L 71.62,23.42 L 71.11,22.26 L 70.82,21.67 L 70.02,20.45 L 68.48,18.51 L 67.52,17.41 L 66.02,15.47 L 65.71,15.04 L 65.27,14.38 L 65.00,13.77 L 65.00,13.64 L 65.33,13.57 L 65.55,13.57 M 86.02,8.44 L 86.06,8.75 L 86.26,9.48 L 86.55,10.00 L 87.27,11.14 L 87.82,11.86 L 89.05,13.40 L 89.05,13.40 L 87.81,11.85 L 87.26,11.12 L 86.54,9.99 L 86.24,9.47 L 86.05,8.74 L 86.02,8.43 L 86.29,8.17 M 95.85,11.56 L 97.17,12.22 L 97.26,12.27 L 96.50,11.89 L 95.85,11.56 M 86.36,8.11 L 86.36,8.11 L 86.37,8.10 M 86.73,8.01 L 86.59,8.00 L 86.59,8.00 Z" fill="rgba(213,104,54,1)"/>
<path d="M 74.50,141.22 L 73.78,141.11 L 71.73,140.46 L 70.66,140.09 L 68.34,139.13 L 67.20,138.63 L 65.19,137.60 L 64.74,137.35 L 63.99,136.89 L 63.18,136.27 L 62.82,135.92 L 61.97,135.37 L 60.93,135.00 L 60.87,135.00 L 60.60,134.85 L 60.44,134.75 L 59.99,134.42 L 59.51,134.04 L 58.12,132.84 L 57.37,132.17 L 55.59,130.49 L 52.66,127.63 L 50.76,125.72 L 47.29,121.48 L 45.61,119.31 L 42.66,114.68 L 41.24,112.33 L 38.86,107.49 L 37.74,105.06 L 35.98,100.19 L 35.18,97.77 L 34.10,93.04 L 33.66,90.71 L 33.33,86.31 L 33.26,84.17 L 33.73,80.26 L 33.91,79.33 L 34.41,77.58 L 35.41,75.17 L 35.63,74.75 L 36.43,73.50 L 36.88,72.82 L 38.02,71.21 L 42.08,65.99 L 42.83,65.10 L 44.09,63.48 L 44.69,62.69 L 45.69,61.23 L 46.16,60.52 L 46.91,59.19 L 47.25,58.53 L 47.76,57.28 L 48.21,56.03 L 48.47,53.60 L 48.03,49.66 L 47.89,49.01 L 47.68,47.92 L 47.59,47.40 L 47.51,46.56 L 47.48,46.17 L 47.52,45.58 L 47.56,45.31 L 47.74,44.94 L 47.96,44.63 L 48.86,44.64 L 50.97,45.48 L 51.97,46.00 L 53.63,47.12 L 54.40,47.70 L 55.61,48.98 L 56.16,49.64 L 56.91,51.10 L 57.24,51.86 L 57.55,53.55 L 57.65,54.43 L 57.52,56.38 L 57.41,57.40 L 56.84,59.66 L 56.51,60.83 L 55.52,63.43 L 53.55,67.77 L 52.55,69.79 L 51.17,73.53 L 50.59,75.35 L 50.07,78.64 L 49.91,80.22 L 50.23,83.02 L 51.66,86.61 L 53.33,89.15 L 55.55,83.69 L 56.31,81.81 L 57.86,78.72 L 58.68,77.24 L 60.63,74.57 L 61.70,73.25 L 64.47,70.49 L 65.23,69.77 L 66.98,68.24 L 69.98,65.71 L 71.17,64.73 L 73.35,62.87 L 74.41,61.96 L 76.35,60.21 L 78.24,58.47 L 81.42,55.16 L 82.94,53.50 L 85.60,50.13 L 89.29,44.67 L 90.29,43.05 L 91.91,40.01 L 92.66,38.52 L 93.80,35.70 L 94.31,34.32 L 94.96,31.69 L 95.22,30.39 L 95.39,27.92 L 95.41,26.70 L 95.09,24.36 L 94.87,23.19 L 94.07,20.93 L 93.61,19.81 L 92.32,17.61 L 89.85,14.33 L 89.05,13.40 L 87.82,11.86 L 87.27,11.14 L 86.55,10.00 L 86.26,9.48 L 86.06,8.75 L 86.02,8.44 L 86.35,8.11 L 86.58,8.00 L 87.44,8.07 L 87.94,8.16 L 89.35,8.62 L 90.13,8.90 L 92.09,9.76 L 95.67,11.47 L 96.50,11.89 L 97.88,12.59 L 98.53,12.93 L 99.59,13.52 L 100.57,14.09 L 101.80,15.13 L 102.32,15.66 L 102.97,16.97 L 103.76,19.72 L 104.35,22.14 L 105.09,26.60 L 105.24,27.73 L 105.43,30.07 L 105.51,31.27 L 105.56,33.84 L 105.57,35.17 L 105.48,38.11 L 105.42,39.64 L 105.19,43.09 L 105.06,44.89 L 104.70,48.98 L 103.99,56.00 L 103.64,59.33 L 103.06,65.24 L 102.79,68.08 L 102.38,73.05 L 102.19,75.43 L 101.93,79.55 L 101.83,81.51 L 101.73,84.85 L 101.70,86.43 L 101.77,89.06 L 101.82,90.30 L 102.04,92.30 L 102.17,93.23 L 102.55,94.69 L 103.30,96.33 L 103.94,97.31 L 105.59,98.91 L 106.46,99.64 L 108.47,100.70 L 109.50,101.16 L 111.73,101.63 L 115.17,101.59 L 116.06,101.45 L 117.30,101.33 L 117.85,101.30 L 118.60,101.50 L 118.93,101.64 L 119.41,102.24 L 120.08,103.71 L 120.38,104.51 L 120.54,106.61 L 120.54,107.73 L 120.13,110.34 L 119.85,111.68 L 118.90,114.60 L 116.93,119.13 L 116.37,120.23 L 115.41,121.67 L 114.94,122.28 L 114.02,122.78 L 113.54,122.92 L 112.48,122.53 L 110.51,121.01 L 110.22,120.74 L 109.26,120.16 L 108.74,119.87 L 107.43,119.31 L 103.00,118.00 L 101.93,117.80 L 100.05,117.29 L 99.15,117.01 L 97.60,116.31 L 96.87,115.94 L 95.60,115.00 L 95.00,114.49 L 93.99,113.26 L 93.51,112.60 L 92.70,111.02 L 92.32,110.18 L 91.68,108.19 L 91.37,107.14 L 90.86,104.70 L 90.19,100.45 L 89.40,94.50 L 86.16,99.50 L 85.57,100.41 L 84.45,102.44 L 83.91,103.49 L 82.89,105.76 L 81.90,108.09 L 80.24,113.35 L 79.47,116.06 L 78.31,121.90 L 77.22,131.02 L 77.14,132.24 L 76.99,134.27 L 76.92,135.22 L 76.78,136.77 L 76.70,137.49 L 76.56,138.61 L 76.48,139.13 L 76.31,139.89 L 76.21,140.23 L 76.00,140.69 L 75.89,140.90 L 75.61,141.12 L 75.32,141.30 M 148.67,103.33 L 148.58,103.24 L 148.41,102.53 L 148.33,102.10 L 148.20,100.85 L 148.14,100.16 L 148.05,98.52 L 148.00,95.80 L 148.00,93.91 L 147.58,89.95 L 147.45,89.01 L 147.12,87.38 L 146.57,85.51 L 146.17,84.57 L 145.38,81.98 L 144.54,78.29 L 144.38,77.25 L 143.97,75.12 L 143.87,74.62 L 143.68,73.77 L 143.43,72.81 L 143.26,72.28 L 143.60,71.27 L 145.03,69.98 L 145.66,69.65 L 146.86,69.35 L 147.45,69.26 L 148.45,69.41 L 148.92,69.54 L 149.58,70.11 L 150.00,71.38 L 150.00,71.48 L 150.10,71.89 L 150.17,72.14 L 150.39,72.81 L 150.65,73.55 L 151.47,75.65 L 151.92,76.79 L 153.06,79.49 L 155.00,83.90 L 155.69,85.43 L 156.94,88.31 L 157.54,89.71 L 158.53,92.13 L 158.98,93.26 L 159.61,94.94 L 159.73,95.30 L 159.90,95.84 L 160.00,96.34 L 160.00,96.53 L 159.60,97.12 L 159.34,97.44 L 158.51,98.23 L 158.05,98.64 L 156.90,99.52 L 154.93,100.85 L 154.23,101.29 L 153.08,102.00 L 152.54,102.34 L 151.70,102.85 L 151.31,103.08 L 150.71,103.42 L 150.43,103.57 L 150.02,103.75 L 149.65,103.90 L 149.24,103.82 L 149.05,103.74 Z" fill="rgba(225,143,60,1)"/>
</g>
</svg>