<svg xmlns="http://www.w3.org/2000/svg" version="1.0" width="1500" height="1400" viewBox="0 150 1500 1300" preserveAspectRatio="xMidYMid meet" fill="#000000">
<g transform="translate(-750.000000,2500.000000) scale(0.100000,-0.100000)" fill="#8B0000" stroke="none">
<path d="M15006 22955 c-8 -8 -19 -15 -25 -15 -6 0 -11 -7 -11 -15 0 -8 -7 -15 -15 -15 -8 0 -15 -7 -15 -15 0 -9 -9 -15 -25 -15 -16 0 -25 -6 -25 -15 0 -8 -7 -15 -15 -15 -8 0 -15 -7 -15 -15 0 -8 -9 -15 -20 -15 -11 0 -20 -7 -20 -15 0 -9 -9 -15 -25 -15 -16 0 -25 -6 -25 -15 0 -8 -7 -15 -15 -15 -8 0 -15 -7 -15 -15 0 -8 -9 -15 -20 -15 -11 0 -20 -4 -20 -10 0 -5 -11 -12 -25 -16 -14 -3 -25 -12 -25 -20 0 -8 -7 -14 -15 -14 -8 0 -15 -4 -15 -9 0 -5 -13 -12 -30 -16 -16 -4 -30 -13 -30 -21 0 -8 -7 -14 -15 -14 -8 0 -15 -4 -15 -10 0 -5 -7 -10 -15 -10 -8 0 -15 -7 -15 -15 0 -9 -9 -15 -25 -15 -14 0 -28 -6 -31 -14 -3 -8 -16 -17 -30 -20 -13 -4 -24 -11 -24 -16 0 -6 -9 -10 -20 -10 -11 0 -20 -7 -20 -15 0 -9 -9 -15 -25 -15 -16 0 -25 -6 -25 -15 0 -10 -10 -15 -30 -15 -20 0 -30 -5 -30 -15 0 -8 -7 -15 -15 -15 -8 0 -15 -4 -15 -9 0 -5 -13 -12 -30 -16 -16 -4 -30 -13 -30 -21 0 -8 -10 -14 -24 -14 -13 0 -26 -7 -30 -15 -3 -8 -17 -15 -31 -15 -16 0 -25 -6 -25 -15 0 -8 -9 -15 -20 -15 -11 0 -20 -4 -20 -10 0 -5 -12 -13 -27 -16 -15 -4 -34 -13 -41 -21 -7 -7 -20 -13 -28 -13 -8 0 -14 -4 -14 -9 0 -5 -13 -12 -30 -16 -16 -4 -30 -10 -30 -15 0 -5 -13 -11 -30 -15 -16 -4 -30 -11 -30 -16 0 -5 -13 -9 -30 -9 -20 0 -30 -5 -30 -15 0 -10 -10 -15 -30 -15 -20 0 -30 -5 -30 -15 0 -10 -10 -15 -30 -15 -20 0 -30 -5 -30 -15 0 -11 -11 -15 -40 -15 -29 0 -40 -4 -40 -15 0 -10 -10 -15 -29 -15 -16 0 -31 -6 -35 -15 -3 -10 -19 -15 -46 -15 -29 0 -40 -4 -40 -15 0 -9 -10 -15 -26 -15 -14 0 -32 -7 -40 -15 -9 -8 -29 -15 -45 -15 -17 0 -37 -7 -45 -15 -9 -8 -28 -15 -44 -15 -16 0 -30 -5 -32 -10 -2 -6 -21 -13 -43 -17 -22 -3 -43 -10 -46 -15 -3 -5 -23 -11 -45 -15 -21 -3 -42 -11 -45 -16 -4 -5 -31 -12 -60 -15 -30 -3 -57 -9 -60 -14 -4 -6 -28 -13 -55 -16 -27 -2 -52 -9 -55 -14 -3 -5 -34 -12 -68 -15 -33 -3 -61 -9 -61 -13 0 -5 -38 -11 -85 -15 -47 -4 -85 -11 -85 -15 0 -4 -44 -10 -97 -12 -59 -3 -99 -10 -101 -17 -3 -8 -61 -11 -190 -11 -146 0 -193 -3 -216 -15 -24 -13 -134 -15 -792 -15 l-764 0 0 -395 c0 -257 4 -395 10 -395 7 0 10 -363 10 -1070 l0 -1070 400 0 400 0 0 1055 0 1055 335 0 c291 0 335 2 335 15 0 13 26 15 174 15 131 0 175 3 178 13 3 8 39 13 118 15 80 3 117 8 127 18 10 10 40 14 103 14 59 0 90 4 92 12 2 6 32 13 69 16 35 3 67 9 70 15 4 5 39 12 78 15 39 2 71 8 71 12 0 4 26 11 58 15 31 4 60 12 64 18 3 5 31 12 62 15 31 2 56 8 56 12 0 5 24 11 53 15 28 4 55 12 58 17 3 5 23 11 45 15 21 3 42 10 45 15 3 5 25 12 48 15 22 3 41 9 41 13 0 4 25 11 55 15 30 3 55 11 55 16 0 5 14 9 30 9 18 0 33 6 36 15 4 10 20 15 45 15 26 0 42 5 45 15 4 10 20 15 45 15 28 0 39 4 39 15 0 11 12 15 45 15 33 0 45 4 45 15 0 9 10 15 26 15 14 0 32 7 40 15 9 8 28 15 44 15 16 0 30 7 34 15 3 8 17 15 31 15 15 0 33 7 41 15 9 8 29 15 45 15 19 0 29 5 29 15 0 10 10 15 30 15 17 0 30 4 30 9 0 5 12 12 26 15 15 4 33 14 41 21 8 8 23 15 34 15 10 0 19 4 19 10 0 5 11 12 25 16 14 3 25 10 25 14 0 5 13 11 29 15 16 3 32 13 35 21 3 8 12 14 21 14 8 0 15 5 15 10 0 6 11 10 25 10 14 0 28 7 31 15 4 8 17 15 30 15 15 0 24 6 24 15 0 10 10 15 30 15 20 0 30 5 30 15 0 9 9 15 25 15 16 0 25 6 25 15 0 8 9 15 20 15 11 0 20 7 20 15 0 9 9 15 25 15 16 0 25 6 25 15 0 8 7 15 16 15 8 0 22 7 30 15 9 8 24 15 35 15 10 0 19 4 19 10 0 5 11 12 25 16 14 3 25 12 25 20 0 8 7 14 15 14 8 0 15 4 15 9 0 5 14 12 30 16 17 4 30 13 30 21 0 8 6 14 14 14 8 0 16 5 18 12 3 7 21 12 41 12 26 0 43 -7 61 -27 13 -14 36 -29 50 -33 14 -3 26 -10 26 -14 0 -4 11 -11 25 -14 14 -4 25 -11 25 -16 0 -6 7 -10 15 -10 8 0 15 -7 15 -15 0 -8 9 -15 19 -15 11 0 26 -7 35 -15 8 -8 19 -15 25 -15 6 0 11 -7 11 -15 0 -10 10 -15 30 -15 20 0 30 -5 30 -15 0 -8 7 -15 15 -15 8 0 15 -7 15 -15 0 -10 10 -15 30 -15 20 0 30 -5 30 -15 0 -10 10 -15 30 -15 20 0 30 -5 30 -15 0 -9 9 -15 25 -15 14 0 25 -4 25 -9 0 -5 14 -12 30 -16 17 -4 30 -11 30 -16 0 -5 7 -9 15 -9 9 0 18 -6 21 -14 3 -8 19 -18 35 -21 16 -4 29 -11 29 -16 0 -5 11 -9 25 -9 15 0 25 -6 25 -14 0 -8 14 -17 30 -21 17 -4 30 -11 30 -16 0 -5 14 -9 30 -9 20 0 30 -5 30 -15 0 -10 10 -15 30 -15 20 0 30 -5 30 -15 0 -10 10 -15 29 -15 16 0 36 -7 45 -15 8 -8 26 -15 41 -15 14 0 28 -7 31 -15 4 -10 20 -15 45 -15 28 0 39 -4 39 -15 0 -10 10 -15 30 -15 20 0 30 -5 30 -15 0 -11 12 -15 45 -15 33 0 45 -4 45 -15 0 -11 11 -15 39 -15 25 0 41 -5 45 -15 3 -9 18 -15 36 -15 16 0 30 -4 30 -9 0 -5 20 -12 45 -15 25 -4 45 -11 45 -15 0 -5 18 -11 40 -15 22 -3 40 -10 40 -15 0 -5 19 -11 41 -14 23 -3 45 -10 48 -15 3 -5 30 -13 59 -17 28 -4 52 -10 52 -15 0 -4 19 -10 41 -13 23 -3 45 -10 48 -15 3 -5 30 -11 60 -14 29 -3 56 -10 60 -15 3 -6 37 -13 75 -16 38 -2 71 -9 75 -15 3 -5 35 -11 70 -14 37 -3 67 -10 69 -16 2 -8 30 -12 77 -12 52 0 78 -4 89 -15 10 -11 36 -15 90 -15 53 0 79 -4 90 -15 11 -12 41 -15 130 -15 96 0 116 -3 116 -15 0 -13 26 -15 173 -15 137 0 177 -3 193 -15 16 -12 75 -14 352 -15 l332 0 0 -420 c0 -367 2 -420 15 -420 8 0 15 5 15 10 0 6 7 10 15 10 8 0 15 7 15 15 0 8 7 15 15 15 8 0 15 7 15 15 0 8 5 15 11 15 6 0 17 7 25 15 9 8 24 15 35 15 10 0 19 7 19 15 0 13 36 15 264 15 202 0 266 3 270 13 5 10 7 10 12 0 3 -7 19 -13 35 -13 l29 0 0 408 c0 224 3 566 7 760 l6 352 -781 0 c-615 0 -781 3 -784 13 -4 9 -59 13 -219 16 -118 1 -217 7 -220 12 -3 5 -56 12 -117 16 -62 3 -112 9 -112 13 0 4 -32 10 -72 14 -40 4 -75 10 -78 15 -3 5 -31 12 -62 16 -32 4 -58 11 -58 15 0 4 -25 10 -56 12 -31 3 -59 9 -62 15 -4 6 -31 14 -59 18 -29 4 -53 10 -53 15 0 4 -19 10 -42 13 -24 3 -44 11 -46 16 -2 6 -21 11 -42 11 -22 0 -42 6 -47 14 -4 7 -30 16 -58 19 -27 3 -51 10 -53 16 -2 6 -17 11 -33 11 -19 0 -29 5 -29 15 0 10 -10 15 -34 15 -19 0 -41 7 -50 15 -8 8 -26 15 -40 15 -16 0 -26 6 -26 15 0 10 -10 15 -30 15 -20 0 -30 5 -30 15 0 11 -11 15 -40 15 -29 0 -40 4 -40 15 0 10 -10 15 -29 15 -16 0 -31 6 -35 15 -3 8 -17 15 -31 15 -14 0 -25 4 -25 9 0 5 -13 12 -30 16 -16 4 -30 10 -30 15 0 5 -13 11 -30 15 -16 4 -30 10 -30 15 0 5 -13 11 -30 15 -16 4 -30 10 -30 15 0 4 -11 11 -25 14 -14 4 -25 11 -25 16 0 6 -9 10 -19 10 -11 0 -26 6 -33 13 -7 7 -21 16 -30 20 -10 3 -18 11 -18 17 0 5 -11 10 -25 10 -14 0 -28 6 -31 14 -3 8 -16 17 -30 20 -13 4 -24 11 -24 16 0 6 -9 10 -20 10 -11 0 -20 7 -20 15 0 9 -9 15 -25 15 -16 0 -25 6 -25 15 0 10 -10 15 -30 15 -20 0 -30 5 -30 15 0 8 -7 15 -15 15 -8 0 -15 7 -15 15 0 10 -10 15 -30 15 -20 0 -30 5 -30 15 0 8 -7 15 -15 15 -8 0 -15 4 -15 10 0 5 -11 12 -25 16 -14 3 -25 10 -25 15 0 5 -6 9 -13 9 -7 0 -20 9 -30 20 -9 11 -24 20 -32 20 -8 0 -15 5 -15 10 0 6 -7 10 -15 10 -9 0 -18 7 -21 15 -3 8 -16 17 -27 21 -12 4 -32 17 -44 30 -12 13 -27 24 -33 24 -5 0 -10 6 -10 14 0 8 -11 17 -25 20 -14 4 -25 11 -25 16 0 6 -9 10 -20 10 -11 0 -20 7 -20 15 0 8 -7 15 -15 15 -8 0 -15 7 -15 15 0 8 -7 15 -15 15 -8 0 -15 7 -15 15 0 9 -9 15 -25 15 -16 0 -25 6 -25 15 0 8 -7 15 -15 15 -8 0 -15 7 -15 15 0 8 -6 15 -14 15 -8 0 -16 7 -20 15 -3 9 -18 15 -35 15 -16 0 -36 -7 -45 -15z"/>
<path d="M15030 21635 c0 -8 -7 -15 -15 -15 -8 0 -15 -7 -15 -15 0 -10 -10 -15 -30 -15 -20 0 -30 -5 -30 -15 0 -9 -9 -15 -25 -15 -16 0 -25 -6 -25 -15 0 -8 -9 -15 -20 -15 -11 0 -20 -4 -20 -10 0 -5 -11 -12 -25 -16 -14 -3 -25 -12 -25 -20 0 -9 -11 -14 -30 -14 -20 0 -30 -5 -30 -15 0 -8 -7 -15 -15 -15 -8 0 -15 -4 -15 -9 0 -5 -13 -12 -30 -16 -16 -4 -30 -10 -30 -15 0 -5 -13 -11 -30 -15 -16 -4 -30 -10 -30 -15 0 -4 -11 -11 -25 -14 -14 -4 -25 -11 -25 -16 0 -6 -9 -10 -19 -10 -11 0 -26 -7 -35 -15 -8 -8 -21 -15 -30 -15 -8 0 -21 -6 -28 -13 -7 -8 -26 -17 -41 -21 -15 -3 -27 -11 -27 -16 0 -6 -13 -10 -30 -10 -20 0 -30 -5 -30 -15 0 -10 -10 -15 -30 -15 -20 0 -30 -5 -30 -15 0 -10 -10 -15 -30 -15 -20 0 -30 -5 -30 -15 0 -9 -10 -15 -26 -15 -14 0 -32 -7 -40 -15 -9 -8 -29 -15 -45 -15 -19 0 -29 -5 -29 -15 0 -10 -10 -15 -30 -15 -16 0 -30 -4 -30 -9 0 -5 -14 -13 -32 -16 -17 -4 -38 -14 -46 -21 -7 -8 -26 -14 -42 -14 -16 0 -30 -5 -32 -11 -2 -5 -22 -13 -46 -16 -23 -3 -42 -9 -42 -13 0 -4 -12 -11 -27 -15 -15 -3 -31 -11 -34 -17 -3 -5 -25 -12 -48 -15 -22 -3 -41 -9 -41 -13 0 -4 -25 -11 -55 -15 -30 -3 -55 -10 -55 -14 0 -5 -19 -11 -42 -14 -24 -3 -44 -11 -46 -16 -2 -6 -24 -11 -48 -11 -32 0 -44 -4 -44 -15 0 -11 -13 -15 -54 -15 -39 0 -55 -4 -60 -15 -4 -11 -21 -15 -61 -15 -42 0 -55 -3 -55 -15 0 -12 -13 -15 -59 -15 -37 0 -61 -4 -63 -12 -3 -7 -32 -14 -74 -16 -38 -3 -72 -9 -76 -15 -3 -6 -35 -13 -70 -15 -35 -3 -66 -9 -69 -13 -3 -5 -43 -12 -90 -16 -46 -3 -87 -10 -90 -16 -4 -5 -51 -12 -105 -15 -55 -2 -102 -9 -105 -14 -3 -5 -62 -12 -130 -15 -68 -3 -127 -10 -130 -15 -3 -5 -90 -12 -192 -15 -103 -3 -187 -9 -187 -13 0 -4 -66 -10 -146 -13 -81 -4 -147 -8 -148 -9 -1 -2 0 -416 2 -920 l2 -918 190 0 c162 0 190 -2 190 -15 0 -11 11 -15 40 -15 22 0 40 -4 40 -9 0 -5 14 -12 30 -16 17 -4 30 -11 30 -16 0 -5 5 -9 11 -9 6 0 29 -17 50 -39 22 -21 39 -44 39 -50 0 -6 4 -11 10 -11 5 0 12 -11 16 -25 3 -14 10 -25 14 -25 5 0 12 -20 16 -45 3 -25 10 -45 15 -45 5 0 9 -444 9 -1045 0 -636 -4 -1045 -9 -1045 -5 0 -13 -25 -16 -55 -4 -30 -11 -55 -15 -55 -4 0 -11 -11 -14 -25 -4 -14 -11 -25 -16 -25 -6 0 -10 -9 -10 -20 0 -11 -7 -20 -15 -20 -8 0 -15 -7 -15 -15 0 -8 -7 -15 -15 -15 -8 0 -15 -7 -15 -15 0 -8 -7 -15 -15 -15 -8 0 -15 -7 -15 -15 0 -8 -7 -15 -15 -15 -8 0 -15 -7 -15 -15 0 -8 -6 -15 -14 -15 -8 0 -16 -7 -20 -15 -3 -8 -12 -15 -21 -15 -8 0 -15 -4 -15 -9 0 -5 -10 -13 -22 -17 -13 -4 -26 -11 -29 -16 -3 -5 -25 -12 -48 -15 -22 -3 -41 -9 -41 -13 0 -4 -25 -11 -55 -15 -30 -3 -55 -11 -55 -16 0 -5 -260 -9 -659 -9 -576 0 -660 2 -665 15 -3 10 -19 15 -46 15 -22 0 -40 4 -40 9 0 5 -13 12 -30 16 -16 4 -30 11 -30 16 0 5 -7 9 -15 9 -8 0 -15 7 -15 15 0 8 -7 15 -15 15 -8 0 -15 6 -15 14 0 8 -13 17 -30 21 -16 4 -30 13 -30 21 0 8 -7 14 -15 14 -8 0 -15 7 -15 15 0 8 -4 15 -10 15 -5 0 -12 11 -16 25 -3 14 -12 25 -20 25 -8 0 -14 7 -14 15 0 8 -7 15 -15 15 -10 0 -15 10 -15 30 0 30 -14 41 -23 18 -2 -7 -2 -39 1 -70 3 -40 9 -58 18 -58 9 0 14 -11 14 -30 0 -20 5 -30 15 -30 8 0 15 -9 15 -20 0 -11 4 -20 10 -20 5 0 12 -11 16 -25 3 -14 12 -25 20 -25 8 0 14 -7 14 -15 0 -8 7 -15 15 -15 8 0 15 -7 15 -15 0 -9 9 -15 25 -15 16 0 25 -6 25 -15 0 -8 7 -15 15 -15 8 0 15 -4 15 -10 0 -5 12 -13 27 -16 15 -4 34 -13 41 -21 7 -7 22 -13 32 -13 10 0 20 -5 22 -10 2 -6 33 -13 71 -17 37 -3 67 -10 67 -14 0 -5 44 -9 98 -9 133 0 142 -3 142 -50 0 -21 5 -40 11 -42 5 -2 13 -24 16 -48 3 -25 10 -48 16 -51 5 -4 12 -28 15 -55 2 -27 9 -52 14 -55 5 -3 12 -23 15 -45 4 -21 12 -45 20 -52 7 -7 13 -27 13 -43 0 -17 7 -37 15 -45 8 -9 15 -29 15 -45 0 -17 7 -37 15 -45 8 -9 15 -29 15 -45 0 -16 4 -29 9 -29 5 0 12 -13 16 -30 4 -16 10 -30 14 -30 5 0 11 -19 14 -41 3 -23 10 -45 15 -48 5 -3 12 -23 16 -43 4 -21 11 -38 16 -38 6 0 10 -13 10 -30 0 -20 5 -30 15 -30 10 0 15 -10 15 -30 0 -20 5 -30 15 -30 10 0 15 -10 15 -30 0 -20 5 -30 15 -30 10 0 15 -10 15 -30 0 -16 4 -30 10 -30 5 0 13 -12 16 -27 4 -15 13 -34 21 -41 7 -7 13 -22 13 -33 0 -10 4 -19 10 -19 5 0 13 -12 16 -27 4 -15 13 -34 21 -41 7 -7 13 -22 13 -33 0 -10 4 -19 10 -19 5 0 12 -11 16 -25 3 -14 10 -25 14 -25 5 0 11 -13 15 -30 4 -16 13 -30 21 -30 9 0 14 -11 14 -30 0 -20 5 -30 15 -30 8 0 15 -7 15 -15 0 -8 4 -15 9 -15 5 0 12 -13 16 -30 4 -16 10 -30 15 -30 4 0 11 -11 14 -25 4 -14 11 -25 16 -25 6 0 10 -9 10 -20 0 -11 7 -20 15 -20 9 0 15 -9 15 -25 0 -16 6 -25 15 -25 10 0 15 -10 15 -30 0 -20 5 -30 15 -30 8 0 15 -6 15 -14 0 -8 7 -16 15 -20 8 -3 15 -17 15 -31 0 -16 6 -25 15 -25 8 0 15 -7 15 -15 0 -8 4 -15 9 -15 5 0 12 -13 16 -30 4 -16 13 -30 21 -30 8 0 14 -7 14 -15 0 -8 4 -15 10 -15 5 0 12 -11 16 -24 3 -14 12 -27 20 -30 8 -3 14 -12 14 -21 0 -8 4 -15 10 -15 5 0 12 -11 16 -24 3 -14 12 -27 20 -30 8 -3 14 -11 14 -17 0 -6 11 -22 24 -34 13 -12 27 -32 31 -43 3 -12 11 -22 16 -22 5 0 9 -7 9 -15 0 -8 7 -15 15 -15 10 0 15 -10 15 -30 0 -20 5 -30 15 -30 8 0 15 -7 15 -15 0 -8 7 -15 15 -15 8 0 15 -7 15 -15 0 -8 7 -15 15 -15 9 0 15 -9 15 -25 0 -16 6 -25 15 -25 8 0 15 -7 15 -15 0 -8 7 -15 15 -15 8 0 15 -7 15 -16 0 -8 14 -29 30 -46 17 -16 30 -36 30 -44 0 -8 7 -14 15 -14 8 0 15 -7 15 -15 0 -8 7 -15 15 -15 8 0 15 -7 15 -15 0 -8 5 -15 10 -15 6 0 10 -7 10 -15 0 -8 6 -15 14 -15 8 0 17 -13 21 -30 4 -16 13 -30 21 -30 8 0 14 -5 14 -11 0 -14 25 -39 39 -39 6 0 11 -7 11 -15 0 -8 7 -15 15 -15 8 0 15 -7 15 -15 0 -8 7 -15 15 -15 8 0 15 -7 15 -15 0 -8 7 -15 15 -15 8 0 15 -9 15 -20 0 -11 7 -20 15 -20 8 0 15 -5 15 -11 0 -6 27 -38 60 -71 33 -33 60 -66 60 -74 0 -8 7 -14 15 -14 8 0 15 -7 15 -15 0 -8 7 -15 15 -15 8 0 15 -7 15 -15 0 -8 5 -15 11 -15 6 0 31 -20 56 -45 24 -25 51 -45 59 -45 8 0 14 -4 14 -10 0 -15 33 -50 47 -50 7 0 13 -5 13 -11 0 -14 115 -129 129 -129 6 0 11 -7 11 -15 0 -8 9 -15 20 -15 11 0 20 -7 20 -15 0 -8 7 -15 15 -15 8 0 15 -7 15 -15 0 -8 7 -15 15 -15 8 0 15 -7 15 -15 0 -8 7 -15 15 -15 8 0 15 -4 15 -10 0 -5 11 -12 25 -16 14 -3 25 -12 25 -20 0 -8 7 -14 15 -14 8 0 15 -7 15 -15 0 -8 5 -15 11 -15 7 0 22 -11 35 -25 13 -14 28 -25 34 -25 5 0 10 -6 10 -14 0 -8 11 -17 25 -20 14 -4 25 -11 25 -16 0 -6 9 -10 20 -10 11 0 20 -7 20 -15 0 -8 7 -15 15 -15 8 0 15 -7 15 -15 0 -8 7 -15 15 -15 8 0 15 -6 15 -14 0 -8 11 -17 25 -20 14 -4 25 -11 25 -16 0 -6 7 -10 15 -10 9 0 18 -7 21 -15 4 -8 12 -15 20 -15 8 0 14 -7 14 -15 0 -9 9 -15 25 -15 16 0 25 -6 25 -15 0 -8 7 -15 15 -15 8 0 15 -7 15 -15 0 -10 10 -15 30 -15 20 0 30 -5 30 -15 0 -8 7 -15 15 -15 8 0 15 -4 15 -10 0 -5 11 -12 25 -16 14 -3 25 -10 25 -15 0 -5 8 -13 18 -16 9 -4 26 -16 38 -29 11 -12 31 -25 42 -29 12 -3 22 -11 22 -16 0 -5 7 -9 15 -9 9 0 18 -6 21 -14 3 -8 16 -17 30 -20 13 -4 24 -11 24 -16 0 -6 7 -10 15 -10 8 0 15 -6 15 -14 0 -8 14 -17 30 -21 17 -4 30 -11 30 -16 0 -5 7 -9 15 -9 8 0 15 -7 15 -15 0 -9 9 -15 25 -15 14 0 28 -6 31 -14 3 -8 16 -17 30 -20 13 -4 24 -11 24 -16 0 -6 7 -10 15 -10 9 0 18 -7 21 -15 4 -8 17 -15 30 -15 15 0 24 -6 24 -15 0 -8 9 -15 20 -15 11 0 20 -4 20 -10 0 -5 11 -12 25 -16 14 -3 25 -10 25 -14 0 -5 14 -11 30 -15 17 -4 30 -10 30 -15 0 -5 14 -11 30 -15 17 -4 30 -11 30 -16 0 -5 7 -9 15 -9 8 0 15 -6 15 -14 0 -8 14 -17 30 -21 17 -4 30 -10 30 -15 0 -4 11 -11 25 -14 14 -4 25 -11 25 -16 0 -6 9 -10 19 -10 11 0 26 -6 33 -13 7 -8 26 -17 41 -21 15 -3 27 -11 27 -16 0 -6 7 -10 15 -10 9 0 18 -7 21 -15 4 -8 17 -15 30 -15 15 0 24 -6 24 -15 0 -10 10 -15 30 -15 20 0 30 -5 30 -15 0 -10 10 -15 30 -15 20 0 30 -5 30 -15 0 -9 9 -15 24 -15 13 0 26 -7 30 -15 3 -8 16 -15 30 -15 13 0 26 -7 30 -15 3 -8 17 -15 31 -15 14 0 25 -4 25 -9 0 -5 14 -12 30 -16 17 -4 30 -10 30 -15 0 -5 14 -11 30 -15 17 -4 30 -11 30 -16 0 -16 77 -11 84 6 3 8 16 15 30 15 13 0 26 7 30 15 3 8 17 15 31 15 14 0 25 5 25 10 0 6 7 10 15 10 9 0 18 7 21 15 4 8 17 15 30 15 15 0 24 6 24 15 0 10 10 15 30 15 20 0 30 5 30 15 0 10 10 15 30 15 20 0 30 5 30 15 0 10 10 15 30 15 20 0 30 5 30 15 0 9 9 15 24 15 13 0 26 7 30 15 3 8 12 15 21 15 8 0 15 4 15 10 0 5 12 13 27 16 15 4 34 13 41 21 7 7 22 13 33 13 10 0 19 4 19 10 0 5 11 12 25 16 14 3 25 10 25 14 0 5 14 11 30 15 17 4 30 11 30 16 0 5 7 9 15 9 8 0 23 9 32 20 10 11 23 20 30 20 7 0 13 4 13 9 0 5 14 12 30 16 17 4 30 10 30 15 0 4 11 11 25 14 14 4 25 11 25 16 0 6 9 10 20 10 11 0 20 7 20 15 0 9 9 15 25 15 16 0 25 6 25 15 0 8 9 15 20 15 11 0 20 4 20 10 0 5 11 12 25 16 14 3 25 12 25 20 0 9 11 14 30 14 20 0 30 5 30 15 0 8 7 15 15 15 8 0 15 4 15 10 0 5 11 12 24 16 14 3 27 12 30 20 3 8 12 14 21 14 8 0 15 4 15 10 0 5 11 12 25 16 14 3 25 12 25 20 0 8 9 14 20 14 11 0 20 4 20 10 0 5 11 12 25 16 14 3 25 12 25 20 0 8 7 14 15 14 8 0 15 4 15 9 0 5 14 12 30 16 17 4 30 13 30 21 0 8 7 14 15 14 8 0 15 5 15 10 0 6 7 10 15 10 8 0 15 7 15 15 0 10 10 15 30 15 20 0 30 5 30 15 0 8 7 15 15 15 8 0 15 7 15 15 0 9 9 15 25 15 16 0 25 6 25 15 0 8 9 15 20 15 11 0 20 7 20 15 0 8 7 15 15 15 8 0 15 4 15 10 0 5 11 12 25 16 14 3 25 12 25 20 0 8 5 14 10 14 6 0 21 11 33 24 13 14 35 28 50 31 15 4 27 13 27 21 0 8 5 14 10 14 6 0 21 11 34 25 13 14 28 25 35 25 6 0 11 7 11 15 0 8 7 15 15 15 8 0 15 6 15 14 0 8 11 17 25 20 14 4 25 11 25 16 0 6 7 10 15 10 8 0 15 7 15 15 0 8 6 15 14 15 8 0 16 7 20 15 3 8 12 15 21 15 8 0 15 7 15 15 0 8 5 15 11 15 6 0 24 13 41 30 16 16 36 30 44 30 8 0 14 7 14 15 0 8 7 15 15 15 8 0 15 7 15 15 0 8 7 15 15 15 8 0 15 7 15 15 0 8 5 15 11 15 7 0 22 11 35 25 13 14 28 25 34 25 5 0 10 7 10 15 0 8 7 15 15 15 8 0 15 7 15 15 0 8 7 15 15 15 8 0 15 7 15 15 0 8 7 15 15 15 8 0 15 7 15 15 0 8 7 15 15 15 8 0 15 7 15 15 0 8 7 15 15 15 8 0 15 7 15 15 0 8 7 15 15 15 8 0 15 7 15 15 0 8 7 15 15 15 8 0 15 5 15 11 0 7 11 22 25 35 14 13 25 28 25 34 0 5 5 10 10 10 6 0 21 11 34 25 13 14 28 25 35 25 6 0 11 5 11 10 0 6 18 27 40 49 22 21 40 42 40 46 0 4 23 30 50 57 28 27 50 56 50 64 0 7 7 14 15 14 8 0 15 7 15 15 0 8 5 15 10 15 6 0 10 7 10 15 0 8 7 15 15 15 8 0 15 7 15 15 0 8 7 15 15 15 8 0 15 7 15 15 0 8 6 15 14 15 8 0 17 11 20 25 4 14 11 25 16 25 6 0 10 7 10 15 0 8 7 15 15 15 8 0 15 9 15 20 0 11 7 20 15 20 9 0 15 9 15 25 0 16 6 25 15 25 8 0 15 7 15 15 0 8 7 15 15 15 8 0 15 7 15 15 0 8 5 15 10 15 6 0 10 7 10 15 0 8 6 15 14 15 8 0 17 13 21 30 4 16 11 30 16 30 5 0 9 7 9 15 0 8 7 15 15 15 8 0 15 7 15 15 0 8 9 23 20 32 11 10 20 23 20 30 0 7 4 13 9 13 5 0 12 11 15 25 4 14 11 25 16 25 6 0 10 7 10 15 0 9 6 18 14 21 8 3 17 16 20 30 4 13 11 24 16 24 6 0 10 7 10 15 0 8 7 15 15 15 8 0 15 9 15 19 0 11 7 26 15 35 8 8 15 19 15 25 0 6 7 11 15 11 10 0 15 10 15 30 0 20 5 30 15 30 8 0 15 7 15 15 0 8 4 15 10 15 5 0 13 12 16 27 4 15 13 34 21 41 7 7 13 19 13 27 0 7 7 15 15 19 8 3 15 12 15 21 0 8 4 15 9 15 5 0 12 11 15 25 4 14 10 25 15 25 5 0 12 14 16 30 4 17 11 30 16 30 5 0 9 7 9 15 0 8 6 15 14 15 8 0 17 13 21 30 4 16 11 30 16 30 5 0 9 11 9 25 0 14 6 28 14 31 8 3 18 19 21 35 4 16 11 29 16 29 5 0 9 11 9 25 0 16 6 25 15 25 10 0 15 10 15 30 0 20 5 30 15 30 10 0 15 10 15 30 0 20 5 30 15 30 10 0 15 10 15 30 0 20 5 30 15 30 9 0 15 10 15 26 0 14 7 32 15 40 8 9 15 24 15 35 0 10 4 19 10 19 5 0 13 18 16 40 4 22 10 40 14 40 5 0 11 14 15 30 4 17 10 30 15 30 4 0 11 16 14 35 4 19 11 35 15 35 5 0 11 18 15 40 3 22 11 40 16 40 5 0 13 18 16 40 4 22 10 40 14 40 4 0 11 16 14 35 4 19 11 35 15 35 5 0 11 19 14 42 3 24 11 44 16 46 6 2 11 21 11 43 0 28 4 39 15 39 11 0 15 12 15 45 0 33 4 45 15 45 11 0 15 12 15 45 0 33 4 45 15 45 12 0 15 13 15 55 0 42 3 55 15 55 11 0 15 12 15 50 0 38 4 50 15 50 11 0 15 13 15 54 0 39 4 55 15 60 11 4 15 21 15 60 0 33 5 56 12 58 6 2 13 32 16 69 3 35 8 66 13 69 5 3 11 38 15 78 4 40 10 72 14 72 4 0 10 32 14 72 4 40 11 75 16 78 6 4 13 43 17 88 3 45 9 82 13 82 4 0 11 41 14 90 4 50 11 90 15 90 5 0 11 64 15 142 4 78 11 145 15 148 4 3 11 74 14 159 4 85 11 157 16 160 4 3 11 170 15 371 4 207 12 366 17 368 5 2 9 86 9 193 l0 189 -115 0 c-65 0 -115 4 -115 9 0 6 -84 11 -202 13 -150 2 -202 6 -206 16 -2 6 -17 12 -33 12 -18 0 -29 5 -29 14 0 8 -13 17 -30 21 -16 4 -30 13 -30 21 0 8 -7 14 -15 14 -8 0 -15 7 -15 15 0 8 -4 15 -8 15 -5 0 -12 -203 -15 -452 -4 -249 -11 -454 -16 -457 -4 -4 -11 -96 -15 -206 -4 -110 -11 -202 -15 -205 -5 -3 -11 -70 -15 -150 -4 -79 -11 -147 -15 -150 -4 -3 -11 -47 -14 -99 -3 -52 -10 -97 -15 -100 -6 -3 -12 -50 -13 -104 -3 -58 -9 -101 -15 -105 -7 -4 -13 -42 -16 -86 -2 -51 -8 -81 -16 -84 -8 -2 -12 -27 -12 -73 0 -53 -4 -71 -15 -75 -11 -5 -15 -22 -15 -64 0 -39 -5 -64 -15 -74 -10 -9 -15 -34 -15 -70 0 -43 -3 -56 -15 -56 -11 0 -15 -12 -15 -50 0 -38 -4 -50 -15 -50 -11 0 -15 -12 -15 -51 0 -31 -6 -56 -15 -65 -9 -9 -15 -34 -15 -59 0 -24 -5 -45 -10 -47 -6 -2 -13 -21 -17 -43 -3 -22 -10 -43 -15 -46 -5 -3 -12 -25 -15 -48 -3 -22 -9 -41 -13 -41 -4 0 -10 -19 -13 -42 -3 -24 -11 -44 -16 -46 -6 -2 -11 -16 -11 -32 0 -16 -6 -35 -14 -42 -7 -8 -17 -29 -21 -46 -3 -18 -11 -32 -16 -32 -5 0 -9 -13 -9 -29 0 -16 -7 -36 -15 -45 -8 -8 -15 -26 -15 -41 0 -14 -7 -28 -15 -31 -8 -4 -15 -18 -15 -34 0 -16 -7 -35 -15 -44 -8 -8 -15 -26 -15 -40 0 -16 -6 -26 -15 -26 -10 0 -15 -10 -15 -30 0 -20 -5 -30 -15 -30 -10 0 -15 -10 -15 -30 0 -20 -5 -30 -15 -30 -10 0 -15 -10 -15 -30 0 -20 -5 -30 -15 -30 -10 0 -15 -10 -15 -30 0 -20 -5 -30 -15 -30 -9 0 -15 -9 -15 -25 0 -14 -4 -25 -9 -25 -5 0 -12 -13 -16 -30 -4 -16 -10 -30 -15 -30 -5 0 -11 -13 -15 -30 -4 -16 -11 -30 -16 -30 -5 0 -9 -7 -9 -15 0 -8 -6 -15 -14 -15 -8 0 -17 -13 -21 -30 -4 -16 -11 -30 -16 -30 -5 0 -9 -6 -9 -14 0 -8 -6 -21 -13 -28 -8 -7 -17 -26 -21 -41 -3 -15 -11 -27 -16 -27 -6 0 -10 -9 -10 -20 0 -11 -7 -20 -15 -20 -9 0 -15 -9 -15 -25 0 -16 -6 -25 -15 -25 -8 0 -15 -7 -15 -15 0 -9 -7 -18 -15 -21 -8 -4 -15 -17 -15 -30 0 -15 -6 -24 -15 -24 -8 0 -15 -7 -15 -15 0 -8 -7 -15 -15 -15 -9 0 -15 -9 -15 -25 0 -14 -7 -28 -15 -31 -8 -4 -15 -12 -15 -20 0 -8 -7 -14 -15 -14 -9 0 -15 -9 -15 -24 0 -13 -7 -26 -15 -30 -8 -3 -15 -11 -15 -17 0 -6 -11 -22 -25 -35 -14 -13 -25 -27 -25 -33 0 -5 -13 -23 -29 -39 -17 -16 -33 -41 -37 -56 -3 -14 -12 -26 -20 -26 -8 0 -14 -7 -14 -15 0 -8 -4 -15 -10 -15 -5 0 -10 -7 -10 -15 0 -8 -7 -15 -15 -15 -8 0 -15 -7 -15 -15 0 -8 -6 -15 -14 -15 -8 0 -17 -11 -20 -25 -4 -14 -11 -25 -16 -25 -6 0 -10 -7 -10 -15 0 -9 -7 -18 -15 -21 -8 -4 -15 -12 -15 -20 0 -8 -7 -14 -15 -14 -8 0 -15 -7 -15 -15 0 -8 -7 -15 -15 -15 -8 0 -15 -7 -15 -15 0 -8 -7 -15 -15 -15 -8 0 -15 -7 -15 -15 0 -8 -4 -15 -10 -15 -5 0 -12 -11 -16 -25 -3 -14 -12 -25 -20 -25 -8 0 -14 -7 -14 -15 0 -8 -7 -15 -15 -15 -8 0 -15 -7 -15 -15 0 -8 -7 -15 -15 -15 -8 0 -15 -7 -15 -15 0 -8 -7 -15 -15 -15 -8 0 -15 -7 -15 -15 0 -8 -4 -15 -10 -15 -5 0 -10 -7 -10 -15 0 -8 -7 -15 -15 -15 -8 0 -15 -7 -15 -15 0 -8 -7 -15 -15 -15 -8 0 -15 -7 -15 -15 0 -8 -7 -15 -15 -15 -8 0 -15 -7 -15 -15 0 -8 -7 -15 -15 -15 -8 0 -15 -7 -15 -15 0 -8 -7 -15 -15 -15 -8 0 -15 -7 -15 -15 0 -8 -7 -15 -15 -15 -8 0 -15 -7 -15 -15 0 -8 -7 -15 -15 -15 -8 0 -15 -7 -15 -15 0 -8 -7 -15 -15 -15 -8 0 -15 -7 -15 -15 0 -8 -7 -15 -15 -15 -8 0 -15 -7 -15 -15 0 -8 -7 -15 -15 -15 -8 0 -15 -4 -15 -10 0 -5 -7 -10 -15 -10 -8 0 -15 -7 -15 -15 0 -8 -7 -15 -15 -15 -8 0 -15 -7 -15 -15 0 -8 -7 -15 -15 -15 -8 0 -15 -7 -15 -15 0 -8 -7 -15 -15 -15 -8 0 -15 -4 -15 -10 0 -5 -11 -12 -25 -16 -14 -3 -25 -12 -25 -20 0 -8 -7 -14 -15 -14 -8 0 -15 -7 -15 -15 0 -8 -7 -15 -15 -15 -8 0 -15 -7 -15 -15 0 -8 -7 -15 -15 -15 -8 0 -15 -7 -15 -15 0 -8 -7 -15 -15 -15 -8 0 -15 -7 -15 -15 0 -8 -7 -15 -15 -15 -8 0 -15 -4 -15 -10 0 -5 -7 -10 -15 -10 -8 0 -15 -7 -15 -15 0 -8 -7 -15 -15 -15 -8 0 -15 -7 -15 -15 0 -8 -7 -15 -15 -15 -8 0 -23 -9 -32 -20 -10 -11 -22 -20 -27 -20 -5 0 -19 -11 -32 -25 -13 -14 -28 -25 -34 -25 -5 0 -10 -7 -10 -15 0 -9 -9 -15 -25 -15 -16 0 -25 -6 -25 -15 0 -8 -7 -15 -15 -15 -8 0 -15 -7 -15 -15 0 -8 -9 -15 -20 -15 -11 0 -20 -7 -20 -15 0 -9 -9 -15 -25 -15 -16 0 -25 -6 -25 -15 0 -8 -6 -15 -14 -15 -8 0 -16 -7 -20 -15 -3 -8 -15 -15 -26 -15 -11 0 -20 -5 -20 -10 0 -6 -8 -14 -17 -17 -10 -4 -31 -19 -46 -35 -16 -15 -35 -28 -44 -28 -8 0 -28 -13 -45 -30 -16 -16 -36 -30 -44 -30 -8 0 -14 -4 -14 -10 0 -5 -6 -10 -13 -10 -7 0 -20 -9 -30 -20 -9 -11 -24 -20 -32 -20 -8 0 -15 -4 -15 -10 0 -5 -7 -10 -15 -10 -8 0 -15 -7 -15 -15 0 -10 -10 -15 -30 -15 -20 0 -30 -5 -30 -15 0 -8 -5 -15 -11 -15 -6 0 -17 -7 -25 -15 -9 -8 -24 -15 -35 -15 -10 0 -19 -7 -19 -15 0 -9 -9 -15 -25 -15 -16 0 -25 -6 -25 -15 0 -8 -9 -15 -20 -15 -11 0 -20 -7 -20 -15 0 -9 -9 -15 -24 -15 -13 0 -26 -7 -30 -15 -3 -8 -17 -15 -31 -15 -16 0 -25 -6 -25 -15 0 -8 -7 -15 -15 -15 -8 0 -15 -4 -15 -9 0 -5 -13 -12 -30 -16 -16 -4 -30 -11 -30 -16 0 -5 -7 -9 -15 -9 -8 0 -23 -9 -32 -20 -10 -11 -23 -20 -30 -20 -7 0 -13 -4 -13 -9 0 -5 -13 -12 -30 -16 -16 -4 -30 -10 -30 -15 0 -4 -11 -11 -25 -14 -14 -4 -25 -11 -25 -16 0 -6 -9 -10 -19 -10 -11 0 -26 -7 -35 -15 -8 -8 -26 -15 -40 -15 -16 0 -26 -6 -26 -15 0 -10 -10 -15 -30 -15 -20 0 -30 -5 -30 -15 0 -12 -13 -15 -60 -15 -47 0 -60 3 -60 15 0 10 -10 15 -30 15 -20 0 -30 5 -30 15 0 10 -10 15 -30 15 -20 0 -30 5 -30 15 0 9 -9 15 -24 15 -13 0 -26 7 -30 15 -3 8 -17 15 -31 15 -14 0 -25 5 -25 10 0 6 -7 10 -15 10 -9 0 -18 7 -21 15 -4 8 -16 15 -28 15 -12 0 -29 9 -39 20 -9 11 -24 20 -32 20 -8 0 -15 4 -15 9 0 5 -11 12 -25 15 -14 4 -25 11 -25 16 0 6 -9 10 -20 10 -11 0 -20 6 -20 14 0 8 -13 17 -30 21 -16 4 -30 11 -30 16 0 5 -7 9 -15 9 -8 0 -15 7 -15 15 0 9 -9 15 -25 15 -16 0 -25 6 -25 15 0 8 -9 15 -19 15 -11 0 -26 7 -35 15 -8 8 -19 15 -25 15 -6 0 -11 7 -11 15 0 8 -9 15 -19 15 -11 0 -26 7 -35 15 -8 8 -19 15 -25 15 -6 0 -11 7 -11 15 0 8 -7 15 -15 15 -8 0 -15 4 -15 9 0 5 -13 12 -30 16 -16 4 -30 11 -30 16 0 5 -7 9 -15 9 -8 0 -15 6 -15 14 0 8 -13 17 -30 21 -16 4 -30 11 -30 16 0 5 -7 9 -15 9 -8 0 -15 6 -15 14 0 8 -11 17 -25 20 -14 4 -25 11 -25 16 0 6 -9 10 -20 10 -11 0 -20 6 -20 14 0 8 -11 17 -25 20 -14 4 -25 11 -25 16 0 6 -7 10 -15 10 -8 0 -15 7 -15 15 0 8 -7 15 -15 15 -9 0 -18 7 -21 15 -4 8 -17 15 -30 15 -15 0 -24 6 -24 15 0 8 -7 15 -15 15 -8 0 -15 7 -15 15 0 9 -9 15 -25 15 -16 0 -25 6 -25 15 0 8 -6 15 -14 15 -8 0 -16 7 -20 15 -3 8 -12 15 -21 15 -8 0 -15 7 -15 15 0 8 -7 15 -15 15 -8 0 -15 4 -15 10 0 5 -11 12 -25 16 -14 3 -25 12 -25 20 0 8 -7 14 -15 14 -8 0 -15 5 -15 10 0 6 -6 10 -13 10 -14 0 -47 35 -47 50 0 6 -7 10 -15 10 -8 0 -15 7 -15 15 0 8 -7 15 -15 15 -8 0 -15 7 -15 15 0 8 -6 15 -14 15 -8 0 -28 14 -44 30 -17 17 -34 30 -39 30 -5 0 -20 13 -33 30 -14 16 -31 29 -37 30 -7 0 -13 7 -13 15 0 8 -7 15 -15 15 -8 0 -15 7 -15 15 0 8 -7 15 -15 15 -8 0 -15 7 -15 15 0 8 -5 15 -11 15 -14 0 -99 85 -99 99 0 6 -7 11 -15 11 -8 0 -15 7 -15 15 0 8 -7 15 -15 15 -8 0 -15 7 -15 15 0 8 -7 15 -15 15 -8 0 -15 7 -15 15 0 8 -7 15 -15 15 -8 0 -15 7 -15 15 0 8 -7 15 -15 15 -8 0 -15 7 -15 15 0 8 -7 15 -15 15 -8 0 -15 7 -15 15 0 8 -7 15 -15 15 -8 0 -15 7 -15 15 0 8 -7 15 -15 15 -8 0 -15 7 -15 15 0 8 -7 15 -15 15 -8 0 -15 7 -15 15 0 8 -7 15 -15 15 -8 0 -15 5 -15 11 0 7 -11 22 -25 35 -14 13 -25 28 -25 34 0 5 -7 10 -15 10 -8 0 -15 6 -15 14 0 8 -13 28 -30 44 -16 17 -30 35 -30 41 0 6 -7 11 -15 11 -8 0 -15 7 -15 15 0 8 -7 15 -15 15 -8 0 -15 6 -15 14 0 8 -7 16 -15 20 -8 3 -15 17 -15 31 0 16 -6 25 -15 25 -8 0 -15 7 -15 15 0 8 -7 15 -15 15 -8 0 -15 7 -15 15 0 8 -7 15 -15 15 -8 0 -15 7 -15 15 0 8 -4 15 -10 15 -5 0 -12 11 -16 24 -3 14 -12 27 -20 30 -8 3 -14 10 -14 16 0 7 -13 25 -30 42 -16 16 -30 35 -30 43 0 7 -7 15 -15 19 -8 3 -15 12 -15 21 0 8 -4 15 -9 15 -5 0 -13 10 -16 22 -4 11 -18 31 -30 43 -13 11 -27 33 -30 48 -4 15 -11 27 -16 27 -5 0 -9 7 -9 15 0 8 -7 15 -15 15 -8 0 -15 5 -15 11 0 6 -7 17 -15 25 -8 9 -15 24 -15 35 0 10 -7 19 -15 19 -9 0 -15 9 -15 25 0 16 -6 25 -15 25 -8 0 -15 9 -15 20 0 11 -7 20 -15 20 -9 0 -15 9 -15 25 0 16 -6 25 -15 25 -8 0 -15 9 -15 20 0 11 -4 20 -10 20 -5 0 -12 11 -16 25 -3 14 -10 25 -14 25 -5 0 -11 14 -15 30 -4 17 -13 30 -21 30 -9 0 -14 11 -14 30 0 20 -5 30 -15 30 -8 0 -15 7 -15 15 0 8 -4 15 -9 15 -5 0 -12 14 -16 30 -4 17 -10 30 -15 30 -5 0 -11 14 -15 30 -4 17 -11 30 -16 30 -5 0 -9 11 -9 25 0 14 -7 28 -15 31 -9 4 -15 19 -15 35 0 19 -5 29 -15 29 -11 0 -15 11 -15 40 0 29 -4 40 -15 40 -10 0 -15 10 -15 30 0 20 -5 30 -15 30 -10 0 -15 10 -15 30 0 20 -5 30 -15 30 -9 0 -15 10 -15 26 0 14 -7 32 -15 40 -8 9 -15 28 -15 44 0 16 -7 30 -15 34 -8 3 -15 16 -15 30 0 13 -5 26 -11 28 -5 2 -13 22 -16 46 -3 23 -9 42 -13 42 -4 0 -11 12 -15 27 -3 15 -11 31 -17 34 -6 4 -13 28 -16 55 -2 27 -11 53 -18 57 -8 4 -14 21 -14 37 0 15 -5 30 -11 32 -6 2 -14 28 -17 57 -4 47 -3 53 17 58 11 3 21 9 21 13 0 9 184 20 211 13 15 -4 19 -15 19 -44 0 -26 5 -42 15 -45 10 -4 15 -20 15 -49 0 -25 6 -50 15 -59 8 -8 15 -26 15 -41 0 -15 7 -33 15 -41 8 -9 15 -27 15 -40 0 -14 7 -32 15 -40 8 -9 15 -29 15 -45 l0 -29 910 0 c593 0 910 3 910 10 0 5 18 13 40 16 22 4 40 10 40 15 0 5 7 9 15 9 8 0 15 7 15 15 0 8 7 15 15 15 8 0 15 7 15 15 0 8 7 15 15 15 13 0 15 26 15 175 l0 174 33 6 c17 3 70 5 117 3 l85 -3 -4 -175 c-1 -96 -6 -177 -10 -180 -5 -3 -11 -23 -14 -45 -4 -22 -11 -41 -17 -43 -5 -2 -10 -10 -10 -18 0 -8 -7 -14 -15 -14 -8 0 -15 -7 -15 -15 0 -8 -7 -15 -15 -15 -8 0 -15 -7 -15 -15 0 -8 -7 -15 -15 -15 -8 0 -15 -7 -15 -15 0 -8 -7 -15 -15 -15 -8 0 -15 -4 -15 -9 0 -5 -13 -12 -30 -16 -16 -4 -30 -13 -30 -21 0 -8 -10 -14 -24 -14 -13 0 -26 -7 -30 -15 -3 -9 -18 -15 -35 -15 -16 0 -31 -6 -33 -12 -4 -10 -134 -14 -596 -16 -362 -2 -592 -7 -592 -13 0 -5 -53 -9 -125 -9 -77 0 -125 4 -125 10 0 16 -257 13 -264 -2 -5 -10 -7 -10 -12 0 -8 17 -31 15 -38 -4 -9 -23 4 -64 20 -64 8 0 14 -10 14 -24 0 -13 7 -26 15 -30 8 -3 15 -16 15 -30 0 -13 7 -26 15 -30 8 -3 15 -16 15 -30 0 -13 7 -26 15 -30 8 -3 15 -17 15 -31 0 -14 5 -25 10 -25 6 0 10 -7 10 -15 0 -9 7 -18 15 -21 8 -4 15 -17 15 -30 0 -15 6 -24 15 -24 10 0 15 -10 15 -30 0 -20 5 -30 15 -30 8 0 15 -5 15 -11 0 -6 7 -17 15 -25 8 -9 15 -24 15 -35 0 -10 7 -19 15 -19 10 0 15 -10 15 -30 0 -20 5 -30 15 -30 9 0 15 -9 15 -25 0 -16 6 -25 15 -25 8 0 15 -9 15 -20 0 -11 4 -20 10 -20 5 0 12 -11 16 -25 3 -14 12 -25 20 -25 8 0 14 -9 14 -20 0 -11 4 -20 10 -20 5 0 12 -11 16 -25 3 -14 12 -25 20 -25 8 0 14 -7 14 -15 0 -8 5 -15 10 -15 6 0 10 -7 10 -15 0 -8 9 -23 20 -32 11 -10 20 -23 20 -30 0 -7 4 -13 9 -13 5 0 12 -11 15 -25 4 -14 11 -25 16 -25 6 0 10 -7 10 -15 0 -8 7 -15 15 -15 8 0 15 -9 15 -20 0 -11 7 -20 15 -20 9 0 15 -9 15 -25 0 -16 6 -25 15 -25 8 0 15 -7 15 -15 0 -8 7 -15 15 -15 8 0 15 -5 15 -10 0 -6 11 -21 24 -33 14 -13 28 -35 31 -50 4 -15 13 -27 21 -27 8 0 14 -7 14 -15 0 -8 7 -15 15 -15 8 0 15 -7 15 -15 0 -8 7 -15 15 -15 8 0 15 -7 15 -15 0 -8 7 -15 15 -15 8 0 15 -5 15 -11 0 -7 11 -22 25 -35 14 -13 25 -28 25 -34 0 -5 7 -10 15 -10 8 0 15 -6 15 -14 0 -8 14 -28 30 -44 17 -17 30 -35 30 -41 0 -6 7 -11 15 -11 8 0 15 -7 15 -15 0 -8 7 -15 15 -15 8 0 15 -7 15 -15 0 -8 7 -15 15 -15 8 0 15 -7 15 -15 0 -8 7 -15 15 -15 8 0 15 -7 15 -15 0 -8 7 -15 15 -15 8 0 15 -7 15 -15 0 -8 7 -15 15 -15 8 0 15 -4 15 -10 0 -15 33 -50 47 -50 7 0 13 -7 13 -15 0 -8 5 -15 11 -15 14 0 159 -145 159 -159 0 -6 7 -11 15 -11 8 0 15 -7 15 -15 0 -8 7 -15 15 -15 8 0 15 -7 15 -15 0 -8 7 -15 15 -15 8 0 15 -6 15 -14 0 -8 11 -17 25 -20 14 -4 25 -11 25 -16 0 -6 7 -10 15 -10 8 0 15 -7 15 -15 0 -8 7 -15 15 -15 9 0 18 -7 21 -15 4 -8 12 -15 20 -15 8 0 14 -7 14 -15 0 -8 7 -15 15 -15 8 0 15 -4 15 -10 0 -5 11 -12 25 -16 14 -3 25 -12 25 -20 0 -8 7 -14 15 -14 8 0 15 -7 15 -15 0 -8 7 -15 15 -15 8 0 15 -4 15 -10 0 -5 7 -10 15 -10 8 0 15 -7 15 -15 0 -8 7 -15 15 -15 8 0 23 -9 32 -20 10 -11 23 -20 30 -20 7 0 13 -4 13 -10 0 -5 7 -10 15 -10 8 0 15 -7 15 -15 0 -8 7 -15 15 -15 8 0 15 -6 15 -14 0 -8 11 -17 25 -20 14 -4 25 -11 25 -16 0 -6 7 -10 15 -10 8 0 15 -7 15 -15 0 -8 9 -15 20 -15 11 0 20 -6 20 -14 0 -8 11 -17 25 -20 14 -4 25 -11 25 -16 0 -6 9 -10 20 -10 11 0 20 -7 20 -15 0 -8 7 -15 15 -15 8 0 15 -4 15 -10 0 -5 11 -12 25 -16 14 -3 25 -12 25 -20 0 -8 7 -14 15 -14 8 0 15 -4 15 -9 0 -5 14 -12 30 -16 17 -4 30 -11 30 -16 0 -5 7 -9 15 -9 8 0 15 -6 15 -14 0 -8 14 -17 30 -21 17 -4 30 -11 30 -16 0 -5 7 -9 15 -9 8 0 15 -7 15 -15 0 -8 6 -15 14 -15 8 0 21 -6 28 -13 7 -8 26 -17 41 -21 15 -3 27 -11 27 -16 0 -6 9 -10 20 -10 11 0 20 -7 20 -15 0 -9 9 -15 25 -15 15 0 25 -6 25 -14 0 -8 11 -17 25 -20 14 -4 25 -11 25 -16 0 -6 9 -10 20 -10 11 0 20 -7 20 -15 0 -10 10 -15 30 -15 20 0 30 -5 30 -15 0 -9 9 -15 24 -15 13 0 26 -7 30 -15 3 -8 16 -15 30 -15 13 0 26 -7 30 -15 3 -8 12 -15 21 -15 8 0 15 -4 15 -10 0 -5 10 -10 23 -10 12 0 30 -9 40 -20 9 -11 23 -20 31 -20 8 0 16 -6 19 -12 5 -16 105 -17 115 -2 4 6 17 14 30 18 12 4 22 11 22 16 0 5 14 11 30 15 17 4 30 10 30 15 0 5 14 11 30 15 17 4 30 11 30 16 0 5 7 9 15 9 9 0 18 7 21 15 4 8 17 15 30 15 15 0 24 6 24 15 0 10 10 15 30 15 20 0 30 5 30 15 0 9 9 15 25 15 16 0 25 6 25 15 0 8 9 15 20 15 11 0 20 7 20 15 0 10 10 15 30 15 20 0 30 5 30 15 0 8 7 15 15 15 8 0 15 4 15 10 0 5 12 13 27 16 15 4 34 13 41 21 7 7 20 13 28 13 8 0 14 7 14 15 0 8 7 15 15 15 8 0 15 4 15 9 0 5 14 12 30 16 17 4 30 13 30 21 0 8 7 14 15 14 8 0 15 5 15 10 0 6 7 10 15 10 8 0 23 9 32 20 10 11 23 20 30 20 7 0 13 4 13 9 0 5 11 12 25 15 14 4 25 11 25 16 0 6 9 10 20 10 11 0 20 7 20 15 0 9 9 15 25 15 16 0 25 6 25 15 0 8 7 15 15 15 8 0 15 7 15 15 0 8 9 15 20 15 11 0 20 4 20 10 0 5 11 12 25 16 14 3 25 12 25 20 0 8 7 14 15 14 8 0 15 5 15 10 0 6 7 10 15 10 8 0 15 7 15 15 0 8 7 15 15 15 8 0 23 9 32 20 10 11 23 20 30 20 7 0 13 7 13 15 0 8 5 15 11 15 7 0 22 11 35 25 13 14 27 25 33 25 5 0 22 13 38 28 15 16 36 31 46 35 9 3 17 11 17 17 0 5 7 10 15 10 8 0 15 7 15 15 0 9 9 15 25 15 16 0 25 6 25 15 0 8 7 15 15 15 8 0 15 7 15 15 0 8 7 15 15 15 8 0 15 7 15 15 0 8 7 15 15 15 8 0 15 7 15 15 0 8 5 15 11 15 6 0 31 20 56 45 24 25 51 45 59 45 8 0 14 7 14 15 0 8 7 15 15 15 8 0 15 7 15 15 0 8 7 15 15 15 8 0 15 7 15 15 0 8 5 15 10 15 6 0 27 18 49 40 21 22 44 40 50 40 6 0 11 7 11 15 0 8 7 15 15 15 8 0 15 7 15 15 0 8 7 15 15 15 8 0 15 7 15 15 0 8 7 15 15 15 8 0 15 5 15 11 0 6 18 29 40 50 22 22 40 43 40 48 0 5 20 30 45 54 25 25 45 49 45 53 0 3 23 29 50 56 28 27 50 54 50 59 0 5 11 20 25 33 14 13 25 28 25 35 0 6 7 11 15 11 8 0 15 7 15 15 0 8 7 15 15 15 8 0 15 7 15 15 0 8 7 15 15 15 9 0 15 9 15 25 0 16 6 25 15 25 8 0 15 9 15 20 0 11 7 20 15 20 8 0 15 7 15 15 0 8 4 15 10 15 5 0 12 11 16 25 3 14 12 25 20 25 8 0 14 7 14 15 0 8 5 15 10 15 6 0 10 6 10 13 0 7 9 20 20 30 11 9 20 24 20 32 0 8 5 15 10 15 6 0 10 7 10 15 0 8 6 15 14 15 8 0 17 11 20 25 4 14 11 25 16 25 6 0 10 9 10 20 0 11 6 20 14 20 8 0 17 11 20 25 4 14 11 25 16 25 6 0 10 9 10 20 0 11 7 20 15 20 9 0 15 9 15 25 0 16 6 25 15 25 8 0 15 9 15 20 0 11 7 20 15 20 9 0 15 9 15 25 0 16 6 25 15 25 10 0 15 10 15 30 0 20 5 30 15 30 8 0 15 7 15 15 0 8 4 15 9 15 5 0 12 14 16 30 4 17 10 30 15 30 4 0 11 11 14 25 4 14 11 25 16 25 6 0 10 9 10 19 0 11 6 26 13 33 8 7 17 26 21 41 3 15 11 27 16 27 6 0 10 7 10 15 0 9 7 18 15 21 8 4 15 17 15 30 0 14 6 27 14 30 7 3 16 23 20 45 3 21 10 39 15 39 5 0 12 14 16 30 4 17 11 30 16 30 5 0 9 14 9 30 0 20 5 30 15 30 10 0 15 10 15 30 0 20 5 30 15 30 11 0 15 11 15 40 0 29 4 40 15 40 10 0 15 10 15 31 0 17 7 37 15 45 8 9 15 27 15 40 0 14 7 32 15 40 8 9 15 30 15 49 0 18 5 35 11 37 5 2 13 22 16 46 3 23 9 42 13 42 4 0 10 18 14 40 3 22 10 40 15 40 5 0 11 19 14 41 3 23 10 45 15 48 5 3 12 24 15 45 4 22 10 42 15 45 5 3 11 30 14 60 3 29 10 56 15 60 6 3 12 30 15 60 3 29 10 56 15 60 6 3 13 35 17 70 3 36 10 67 15 70 4 3 10 30 13 60 3 29 10 56 15 60 6 3 12 42 15 85 2 51 8 81 16 84 8 2 12 30 12 88 0 66 3 86 15 90 12 5 15 27 15 109 0 79 4 107 15 119 12 12 15 44 15 160 0 123 2 146 15 146 13 0 15 30 15 214 0 163 3 215 13 218 9 4 13 150 15 675 l3 671 162 4 c89 1 174 1 190 -1 l27 -3 0 -114 c0 -95 3 -114 15 -114 9 0 15 -9 15 -25 0 -16 6 -25 15 -25 8 0 15 -6 15 -14 0 -8 12 -17 27 -21 15 -3 31 -12 35 -18 10 -16 721 -14 726 2 2 6 10 11 18 11 8 0 14 7 14 15 0 8 7 15 15 15 13 0 15 65 15 525 0 343 3 525 10 525 6 0 10 14 10 30 0 17 -4 30 -10 30 -5 0 -10 6 -10 13 0 14 -35 47 -50 47 -6 0 -10 7 -10 15 0 13 -47 15 -365 15 -318 0 -365 -2 -365 -15 0 -10 -10 -15 -30 -15 -25 0 -30 -4 -30 -25 0 -16 -6 -25 -15 -25 -8 0 -15 -9 -15 -20 0 -11 -7 -20 -15 -20 -13 0 -15 -20 -15 -124 0 -104 -3 -125 -16 -130 -9 -3 -87 -6 -175 -6 -135 0 -159 2 -159 15 0 8 -7 15 -15 15 -13 0 -15 61 -15 493 l0 494 -137 6 c-75 4 -180 7 -235 7 -54 0 -98 4 -98 8 0 5 -77 12 -172 16 -95 4 -175 11 -178 15 -3 4 -54 11 -114 14 -60 3 -111 9 -115 15 -3 5 -43 11 -89 13 -47 3 -86 9 -90 15 -4 7 -44 13 -91 16 -55 2 -86 8 -89 16 -2 8 -25 12 -62 12 -39 0 -64 5 -74 15 -9 10 -34 15 -71 15 -40 0 -57 4 -61 15 -5 11 -21 15 -59 15 -34 0 -59 5 -69 15 -8 9 -33 15 -60 15 -26 0 -51 6 -60 15 -8 8 -32 15 -54 15 -22 0 -42 5 -44 11 -2 6 -28 14 -58 17 -30 2 -58 9 -61 14 -3 5 -25 12 -48 15 -22 3 -41 9 -41 14 0 5 -18 12 -40 15 -22 4 -40 10 -40 14 0 4 -19 10 -41 13 -23 3 -45 10 -48 16 -4 5 -26 13 -49 17 -23 4 -42 10 -42 14 0 5 -13 11 -30 15 -16 4 -30 10 -30 14 0 5 -19 11 -41 14 -23 3 -45 10 -48 15 -3 6 -19 14 -34 17 -15 4 -27 11 -27 16 0 5 -11 9 -25 9 -14 0 -28 7 -31 15 -4 8 -18 15 -34 15 -16 0 -35 7 -44 15 -8 8 -26 15 -40 15 -16 0 -26 6 -26 15 0 10 -10 15 -30 15 -20 0 -30 5 -30 15 0 10 -10 15 -30 15 -20 0 -30 5 -30 15 0 10 -10 15 -30 15 -20 0 -30 5 -30 15 0 9 -9 15 -24 15 -13 0 -26 7 -30 15 -3 8 -17 15 -31 15 -14 0 -25 4 -25 9 0 5 -12 12 -26 15 -14 4 -36 18 -48 31 -12 13 -34 27 -49 30 -15 4 -27 11 -27 15 0 5 -13 11 -30 15 -16 4 -30 11 -30 16 0 5 -7 9 -15 9 -8 0 -15 7 -15 15 0 9 -9 15 -25 15 -14 0 -28 7 -31 15 -4 8 -17 15 -30 15 -14 0 -27 7 -30 15 -4 8 -12 15 -20 15 -8 0 -14 7 -14 15 0 9 -9 15 -25 15 -16 0 -25 6 -25 15 0 8 -9 15 -20 15 -11 0 -20 7 -20 15 0 9 -9 15 -25 15 -14 0 -28 7 -31 15 -4 8 -10 15 -15 15 -5 0 -9 -7 -9 -15z m790 -1610 c0 -13 24 -15 160 -15 l160 0 0 -55 0 -55 68 0 c37 0 77 -3 90 -6 l22 -6 0 -234 c0 -201 2 -234 15 -234 8 0 15 -4 15 -10 0 -7 377 -10 1110 -10 733 0 1110 3 1110 10 0 16 677 13 684 -2 5 -10 7 -10 12 0 4 7 27 12 64 12 56 0 58 1 63 30 5 21 14 31 32 36 14 3 25 10 25 15 0 5 7 9 15 9 9 0 18 7 21 15 4 10 20 15 45 15 28 0 39 4 39 15 0 12 13 15 55 15 30 0 55 -4 55 -9 0 -5 14 -13 32 -16 17 -4 38 -14 46 -21 7 -8 20 -14 28 -14 7 0 16 -11 20 -25 3 -14 12 -25 20 -25 8 0 14 -7 14 -16 0 -8 7 -22 15 -30 9 -9 15 -34 15 -60 0 -24 5 -44 10 -44 6 0 10 -7 10 -15 0 -8 -4 -15 -9 -15 -4 0 -11 -19 -14 -41 -3 -23 -10 -45 -15 -48 -6 -3 -14 -19 -17 -34 -4 -15 -13 -27 -21 -27 -8 0 -14 -4 -14 -10 0 -5 -11 -12 -25 -16 -14 -3 -25 -12 -25 -20 0 -10 -13 -14 -45 -14 -25 0 -45 -4 -45 -10 0 -5 -13 -10 -30 -10 -16 0 -30 5 -30 10 0 6 -20 10 -45 10 -33 0 -45 4 -45 15 0 9 -9 15 -23 15 -22 0 -57 31 -57 50 0 18 -2383 29 -3292 15 -308 -5 -348 -4 -348 10 0 8 -7 15 -15 15 -13 0 -15 16 -13 103 l3 102 157 3 c185 3 168 -12 165 152 l-2 105 -147 3 -148 3 0 183 c0 100 3 186 7 189 11 12 23 8 23 -8z m-612 -173 c2 -7 21 -15 43 -18 21 -4 39 -10 39 -15 0 -5 7 -9 15 -9 9 0 18 -7 21 -15 4 -8 17 -15 30 -15 15 0 24 -6 24 -15 0 -8 7 -15 15 -15 8 0 15 -7 15 -15 0 -8 7 -15 15 -15 8 0 15 -7 15 -15 0 -8 7 -15 15 -15 8 0 15 -7 15 -15 0 -8 7 -15 15 -15 8 0 15 -6 15 -14 0 -8 7 -16 15 -20 8 -3 15 -17 15 -31 0 -16 6 -25 15 -25 9 0 15 -9 15 -24 0 -13 7 -26 15 -30 8 -3 15 -17 15 -31 0 -15 7 -33 15 -41 10 -11 15 -36 15 -79 0 -41 4 -65 13 -68 9 -4 9 -8 1 -14 -7 -4 -13 -45 -16 -92 -2 -55 -8 -86 -16 -89 -6 -2 -12 -16 -12 -32 0 -16 -7 -35 -15 -44 -8 -8 -15 -22 -15 -30 0 -9 -7 -16 -15 -16 -9 0 -15 -9 -15 -25 0 -14 -7 -28 -15 -31 -8 -4 -15 -12 -15 -20 0 -8 -6 -14 -14 -14 -8 0 -17 -11 -20 -25 -4 -14 -11 -25 -16 -25 -6 0 -10 -7 -10 -15 0 -8 -7 -15 -15 -15 -8 0 -15 -7 -15 -15 0 -9 -9 -15 -25 -15 -16 0 -25 -6 -25 -15 0 -10 -10 -15 -30 -15 -20 0 -30 -5 -30 -15 0 -10 -10 -15 -30 -15 -20 0 -30 -5 -30 -15 0 -10 -10 -15 -31 -15 -17 0 -38 -7 -46 -16 -13 -13 -36 -15 -131 -12 -81 2 -117 7 -120 16 -2 7 -21 12 -48 12 -32 0 -44 4 -44 15 0 10 -10 15 -30 15 -20 0 -30 5 -30 15 0 10 -10 15 -30 15 -20 0 -30 5 -30 15 0 9 -9 15 -25 15 -16 0 -25 6 -25 15 0 8 -5 15 -10 15 -6 0 -21 11 -34 25 -13 14 -28 25 -35 25 -6 0 -11 9 -11 20 0 11 -7 20 -15 20 -8 0 -15 7 -15 15 0 8 -4 15 -10 15 -5 0 -12 11 -16 24 -3 14 -12 27 -20 30 -8 3 -14 16 -14 30 0 13 -5 26 -10 28 -6 2 -13 21 -17 43 -3 22 -11 43 -17 47 -16 10 -14 250 2 256 7 2 12 23 12 48 0 32 4 44 15 44 10 0 15 10 15 30 0 18 6 33 15 36 8 4 15 17 15 30 0 15 6 24 15 24 9 0 15 9 15 25 0 14 7 28 15 31 8 4 15 12 15 20 0 8 7 14 15 14 8 0 15 7 15 15 0 8 7 15 15 15 8 0 15 4 15 10 0 5 11 12 24 16 14 3 27 12 30 20 3 8 12 14 21 14 8 0 15 4 15 10 0 5 12 13 27 16 15 4 34 13 41 21 7 7 27 13 43 13 16 0 29 4 29 9 0 17 33 20 194 17 114 -1 161 -5 164 -14z m-944 -448 c3 -9 6 -53 6 -98 0 -115 -1 -116 -180 -116 l-140 0 0 -1010 c0 -667 3 -1010 10 -1010 6 0 10 -13 10 -30 0 -16 -4 -30 -10 -30 -6 0 -10 -45 -10 -115 0 -70 4 -115 10 -115 6 0 10 -100 10 -280 0 -242 2 -280 15 -280 8 0 15 -7 15 -15 0 -8 7 -15 15 -15 8 0 15 -7 15 -15 0 -8 6 -15 14 -15 8 0 17 -12 21 -27 3 -15 11 -31 17 -34 15 -9 16 -158 2 -167 -6 -4 -15 -17 -18 -30 -10 -31 -71 -90 -101 -98 -14 -3 -25 -10 -25 -15 0 -5 -38 -9 -85 -9 -47 0 -85 4 -85 9 0 5 -13 12 -30 16 -16 4 -30 11 -30 16 0 5 -7 9 -15 9 -8 0 -15 7 -15 15 0 8 -7 15 -15 15 -8 0 -15 7 -15 15 0 8 -7 15 -15 15 -10 0 -15 10 -15 29 0 16 -6 31 -15 35 -11 4 -15 22 -15 76 0 56 3 70 15 70 10 0 15 10 15 30 0 20 5 30 15 30 8 0 15 7 15 15 0 8 7 15 15 15 8 0 15 7 15 15 0 10 10 15 30 15 l30 0 0 1495 c0 1322 2 1495 15 1495 8 0 15 5 15 10 0 20 67 80 89 80 11 0 21 5 21 10 0 6 70 10 189 10 163 0 190 -2 195 -16z m2034 -390 c12 -4 22 -13 22 -20 0 -8 4 -14 10 -14 5 0 13 -12 16 -27 9 -33 27 -53 48 -53 9 0 16 -6 16 -14 0 -8 7 -16 15 -20 8 -3 15 -17 15 -31 0 -16 6 -25 16 -25 14 0 15 -14 12 -102 -2 -70 -7 -103 -15 -106 -7 -2 -13 -10 -13 -17 0 -7 -14 -27 -31 -44 -17 -17 -37 -31 -44 -31 -7 0 -15 -6 -17 -12 -4 -10 -38 -13 -128 -13 -90 0 -124 3 -127 13 -3 6 -11 12 -19 12 -8 0 -17 7 -20 15 -4 8 -12 15 -20 15 -8 0 -14 6 -14 14 0 8 -7 16 -15 20 -8 3 -15 12 -15 20 0 8 -6 16 -12 18 -17 6 -18 186 -1 196 6 4 15 20 18 35 4 15 13 27 21 27 8 0 14 4 14 10 0 5 11 12 25 16 21 5 25 12 25 44 0 35 3 39 30 45 17 4 30 10 30 15 0 14 117 24 158 14z m22 -688 c0 -8 6 -16 13 -19 9 -3 12 -111 12 -497 0 -385 -3 -494 -12 -497 -10 -4 -13 -280 -13 -1334 l0 -1329 25 0 c16 0 25 -6 25 -15 0 -8 9 -15 20 -15 11 0 20 -7 20 -15 0 -8 7 -15 15 -15 9 0 15 -9 15 -24 0 -13 7 -26 15 -30 9 -3 15 -18 15 -36 0 -16 5 -30 10 -30 6 0 10 -11 10 -25 0 -14 -4 -25 -10 -25 -5 0 -10 -22 -10 -49 0 -42 -5 -54 -30 -79 -16 -17 -30 -35 -30 -41 0 -6 -7 -11 -15 -11 -9 0 -18 -6 -21 -14 -3 -7 -23 -16 -45 -20 -21 -3 -39 -11 -39 -16 0 -6 -32 -10 -75 -10 -42 0 -75 4 -75 10 0 5 -12 13 -27 16 -41 11 -123 96 -123 128 0 14 -4 26 -10 26 -6 0 -10 30 -10 70 0 39 4 70 9 70 5 0 12 14 16 30 4 17 11 30 16 30 5 0 9 7 9 15 0 8 7 15 15 15 8 0 15 7 15 15 0 8 7 15 15 15 8 0 15 7 15 15 0 8 7 15 15 15 13 0 15 156 15 1345 0 890 -3 1345 -10 1345 -7 0 -10 163 -10 470 0 307 3 470 10 470 6 0 10 14 10 30 l0 30 105 0 c84 0 105 -3 105 -14z m-1170 -2371 c0 -217 4 -335 10 -335 6 0 10 -7 10 -15 0 -10 10 -15 34 -15 19 0 41 -7 50 -15 8 -8 26 -15 40 -15 16 0 26 -6 26 -15 0 -10 10 -15 30 -15 20 0 30 -5 30 -15 0 -8 7 -15 15 -15 9 0 18 -7 21 -15 4 -8 17 -15 30 -15 15 0 24 -6 24 -15 0 -8 7 -15 15 -15 8 0 15 -7 15 -15 0 -8 7 -15 15 -15 8 0 15 -7 15 -15 0 -8 7 -15 15 -15 8 0 15 -7 15 -15 0 -8 4 -15 10 -15 5 0 12 -11 16 -25 3 -14 12 -25 20 -25 8 0 14 -6 14 -14 0 -8 7 -16 15 -20 8 -3 15 -17 15 -31 0 -16 6 -25 15 -25 10 0 15 -10 15 -30 0 -20 5 -30 15 -30 10 0 15 -10 15 -29 0 -16 5 -31 12 -33 6 -2 13 -30 16 -61 2 -31 8 -57 13 -57 5 0 9 -58 9 -130 0 -71 -4 -130 -9 -130 -5 0 -11 -22 -15 -50 -4 -27 -10 -50 -15 -50 -5 0 -11 -18 -15 -40 -3 -22 -10 -40 -15 -40 -5 0 -12 -13 -16 -30 -4 -16 -11 -30 -16 -30 -5 0 -9 -7 -9 -15 0 -8 -7 -15 -15 -15 -8 0 -15 -6 -15 -14 0 -19 -117 -136 -136 -136 -8 0 -14 -7 -14 -15 0 -8 -7 -15 -15 -15 -8 0 -15 -4 -15 -9 0 -5 -11 -12 -25 -15 -14 -4 -25 -11 -25 -16 0 -6 -9 -10 -20 -10 -11 0 -20 -7 -20 -15 0 -11 -11 -15 -40 -15 -29 0 -40 -4 -40 -15 0 -12 -13 -15 -60 -15 -47 0 -60 -3 -60 -15 0 -13 -21 -15 -130 -15 -107 0 -132 3 -136 15 -5 11 -21 15 -60 15 -41 0 -54 4 -54 15 0 10 -10 15 -31 15 -17 0 -37 7 -45 15 -9 8 -24 15 -35 15 -10 0 -19 4 -19 9 0 5 -10 13 -22 17 -13 4 -33 17 -45 30 -12 13 -27 24 -33 24 -5 0 -10 7 -10 15 0 8 -7 15 -15 15 -8 0 -15 7 -15 15 0 8 -7 15 -15 15 -8 0 -15 7 -15 15 0 8 -7 15 -15 15 -8 0 -15 7 -15 15 0 8 -7 15 -15 15 -8 0 -15 7 -15 15 0 8 -7 15 -15 15 -8 0 -15 7 -15 16 0 8 -7 22 -15 30 -8 9 -15 29 -15 45 0 19 -5 29 -15 29 -10 0 -15 10 -15 29 0 16 -5 31 -12 33 -6 2 -13 30 -16 61 -2 31 -8 57 -13 57 -5 0 -9 45 -9 100 0 55 4 100 9 100 5 0 11 32 13 72 2 44 9 73 16 76 7 2 12 17 12 33 0 19 5 29 15 29 10 0 15 10 15 30 0 19 5 30 14 30 8 0 17 11 20 25 4 14 11 25 16 25 6 0 10 9 10 20 0 11 6 20 14 20 8 0 17 11 20 25 4 14 11 25 16 25 6 0 10 7 10 15 0 8 7 15 15 15 8 0 15 7 15 15 0 8 7 15 15 15 9 0 18 7 21 15 4 8 17 15 30 15 15 0 24 6 24 15 0 8 7 15 15 15 8 0 15 7 15 15 0 9 9 15 25 15 16 0 25 6 25 15 0 10 10 15 30 15 20 0 30 5 30 15 0 10 10 15 31 15 17 0 37 7 45 15 9 9 34 15 60 15 l44 0 0 215 0 215 -334 0 c-184 0 -341 3 -350 6 -13 5 -16 24 -16 105 l0 99 48 1 c26 1 170 0 319 -1 243 -2 273 0 279 14 4 10 18 16 35 16 19 0 29 5 29 15 0 12 19 15 115 15 l115 0 0 -335z"/>
<path d="M14910 19671 c0 -5 -18 -11 -40 -15 -22 -3 -40 -11 -40 -16 0 -6 -9 -10 -20 -10 -11 0 -20 -7 -20 -15 0 -9 -9 -15 -25 -15 -16 0 -25 -6 -25 -15 0 -8 -6 -15 -14 -15 -8 0 -17 -11 -20 -25 -4 -14 -11 -25 -16 -25 -6 0 -10 -9 -10 -20 0 -11 -7 -20 -15 -20 -10 0 -15 -10 -15 -30 0 -19 -5 -30 -14 -30 -16 0 -23 -99 -18 -232 3 -59 7 -78 18 -78 9 0 14 -11 14 -30 0 -20 5 -30 15 -30 8 0 15 -9 15 -20 0 -11 7 -20 15 -20 8 0 15 -7 15 -15 0 -8 7 -15 15 -15 8 0 15 -7 15 -15 0 -8 7 -15 15 -15 8 0 15 -4 15 -9 0 -5 11 -12 25 -15 14 -4 25 -11 25 -16 0 -6 9 -10 19 -10 11 0 26 -7 35 -15 11 -12 43 -15 154 -15 115 0 141 3 146 15 3 8 17 15 31 15 14 0 25 5 25 10 0 6 8 14 18 17 22 9 72 58 72 72 0 6 7 11 15 11 8 0 15 9 15 20 0 11 7 20 15 20 9 0 15 9 15 25 0 16 6 25 15 25 11 0 15 11 15 41 0 23 7 47 15 55 11 11 15 37 15 90 0 57 -4 76 -15 80 -10 4 -15 20 -15 45 0 28 -4 39 -15 39 -10 0 -15 10 -15 30 0 20 -5 30 -15 30 -8 0 -15 7 -15 15 0 8 -7 15 -15 15 -8 0 -15 7 -15 15 0 8 -7 15 -15 15 -8 0 -15 7 -15 15 0 8 -7 15 -15 15 -8 0 -15 4 -15 10 0 5 -11 12 -25 16 -14 3 -25 10 -25 14 0 5 -13 11 -30 15 -16 4 -30 11 -30 16 0 5 -54 9 -120 9 -66 0 -120 -4 -120 -9z m156 -86 c9 -8 31 -15 50 -15 19 0 34 -4 34 -10 0 -5 12 -13 27 -16 28 -7 63 -33 63 -47 0 -5 14 -22 30 -39 17 -16 30 -36 30 -43 0 -7 6 -15 13 -17 17 -6 17 -225 0 -236 -6 -4 -15 -20 -18 -35 -4 -15 -11 -27 -16 -27 -5 0 -9 -7 -9 -15 0 -8 -7 -15 -15 -15 -8 0 -15 -7 -15 -15 0 -8 -7 -15 -15 -15 -8 0 -15 -5 -15 -10 0 -6 -8 -14 -17 -17 -10 -4 -24 -13 -31 -20 -7 -7 -27 -13 -43 -13 -16 0 -29 -4 -29 -10 0 -6 -30 -10 -70 -10 -40 0 -70 4 -70 10 0 6 -16 10 -35 10 -23 0 -35 5 -35 14 0 8 -11 17 -25 20 -14 4 -25 11 -25 16 0 6 -7 10 -15 10 -8 0 -15 7 -15 15 0 8 -6 15 -14 15 -8 0 -17 14 -21 30 -4 17 -13 30 -21 30 -9 0 -14 11 -14 30 0 17 -4 30 -10 30 -6 0 -10 32 -10 75 0 43 4 75 10 75 6 0 10 13 10 29 0 16 7 36 15 45 8 8 15 20 15 26 0 6 7 13 15 16 8 4 15 12 15 20 0 8 5 14 10 14 6 0 21 11 34 25 13 14 28 25 34 25 6 0 15 7 20 16 6 10 25 15 60 16 36 1 52 6 52 15 0 18 48 17 66 -2z"/>
<path d="M14880 15395 c0 -11 -11 -15 -39 -15 -25 0 -41 -5 -45 -15 -3 -8 -16 -15 -30 -15 -13 0 -26 -7 -30 -15 -3 -8 -12 -15 -21 -15 -8 0 -15 -4 -15 -10 0 -5 -11 -12 -25 -16 -14 -3 -25 -12 -25 -20 0 -8 -7 -14 -15 -14 -8 0 -15 -7 -15 -15 0 -8 -7 -15 -15 -15 -8 0 -15 -7 -15 -15 0 -8 -4 -15 -10 -15 -5 0 -12 -11 -16 -24 -3 -14 -12 -27 -20 -30 -8 -3 -14 -17 -14 -31 0 -14 -4 -25 -9 -25 -5 0 -12 -12 -16 -27 -3 -15 -11 -31 -17 -34 -13 -8 -14 -319 -1 -328 6 -3 13 -23 17 -43 4 -21 11 -38 16 -38 4 0 11 -13 15 -30 4 -16 11 -30 16 -30 5 0 9 -7 9 -15 0 -8 7 -15 15 -15 8 0 15 -7 15 -15 0 -8 7 -15 15 -15 8 0 15 -7 15 -15 0 -8 7 -15 15 -15 8 0 15 -4 15 -10 0 -5 7 -10 15 -10 8 0 15 -7 15 -15 0 -8 7 -15 15 -15 8 0 15 -7 15 -15 0 -10 10 -15 30 -15 20 0 30 -5 30 -15 0 -10 10 -15 29 -15 16 0 37 -8 47 -17 15 -16 38 -18 182 -17 108 0 166 4 170 11 4 6 20 15 35 18 15 4 27 11 27 15 0 5 14 11 30 15 17 4 30 13 30 21 0 8 7 14 15 14 8 0 15 5 15 10 0 6 7 10 15 10 8 0 15 7 15 15 0 8 7 15 15 15 8 0 15 7 15 15 0 8 7 15 15 15 8 0 15 7 15 15 0 8 7 15 15 15 8 0 15 7 15 15 0 8 4 15 9 15 5 0 12 14 16 30 4 17 11 30 16 30 5 0 9 11 9 25 0 13 8 28 18 34 15 9 17 28 17 177 0 125 -3 168 -13 172 -6 2 -15 21 -18 43 -4 21 -10 39 -15 39 -5 0 -9 7 -9 15 0 9 -7 18 -15 21 -8 4 -15 17 -15 30 0 15 -6 24 -15 24 -8 0 -15 7 -15 15 0 8 -7 15 -15 15 -8 0 -15 7 -15 15 0 8 -7 15 -15 15 -8 0 -15 7 -15 15 0 8 -7 15 -15 15 -8 0 -15 6 -15 14 0 8 -11 17 -25 20 -14 4 -25 11 -25 16 0 6 -9 10 -20 10 -11 0 -20 7 -20 15 0 11 -12 15 -45 15 -33 0 -45 4 -45 15 0 13 -23 15 -145 15 -122 0 -145 -2 -145 -15z m180 -114 c0 -5 26 -11 57 -13 31 -3 59 -10 61 -16 2 -7 15 -12 28 -12 14 0 27 -7 30 -15 4 -8 12 -15 19 -15 18 0 105 -88 105 -106 0 -8 5 -14 10 -14 6 0 10 -7 10 -15 0 -8 7 -15 15 -15 11 0 15 -12 15 -45 0 -33 4 -45 15 -45 12 0 15 -18 15 -100 0 -80 -3 -102 -15 -106 -10 -4 -15 -20 -15 -44 0 -24 -5 -40 -15 -44 -8 -3 -15 -17 -15 -31 0 -16 -6 -25 -15 -25 -8 0 -15 -7 -15 -15 0 -8 -4 -15 -10 -15 -5 0 -10 -7 -10 -15 0 -8 -7 -15 -15 -15 -8 0 -15 -7 -15 -15 0 -8 -9 -15 -20 -15 -11 0 -20 -7 -20 -15 0 -9 -9 -15 -24 -15 -13 0 -26 -7 -30 -15 -3 -10 -19 -15 -45 -15 -23 0 -41 -5 -43 -12 -3 -9 -33 -13 -103 -13 -70 0 -100 4 -102 13 -3 6 -18 12 -34 12 -19 0 -29 5 -29 15 0 10 -10 15 -30 15 -19 0 -30 5 -30 14 0 8 -11 17 -25 20 -14 4 -25 11 -25 16 0 6 -7 10 -15 10 -8 0 -15 6 -15 14 0 8 -13 27 -28 43 -16 15 -32 40 -35 56 -4 15 -12 27 -17 27 -6 0 -10 15 -10 34 0 19 -7 41 -15 50 -18 17 -22 152 -4 158 5 2 13 22 16 46 3 23 9 42 14 42 4 0 10 14 14 30 4 17 11 30 16 30 5 0 9 7 9 15 0 8 6 15 14 15 8 0 17 11 20 25 4 15 16 27 31 31 14 3 25 12 25 20 0 8 9 14 20 14 11 0 20 4 20 9 0 5 10 13 23 17 12 4 25 11 29 17 3 6 31 12 62 15 31 2 56 8 56 13 0 5 20 9 45 9 25 0 45 -4 45 -9z"/>
<path d="M10068 18483 c-10 -2 -18 -11 -18 -19 0 -8 -7 -14 -15 -14 -8 0 -15 -7 -15 -15 0 -8 -7 -15 -15 -15 -9 0 -15 -9 -15 -24 0 -13 -6 -26 -12 -28 -10 -4 -13 -211 -13 -993 0 -782 3 -989 13 -992 7 -3 12 -22 12 -49 0 -32 4 -44 15 -44 10 0 15 -10 15 -30 0 -20 5 -30 15 -30 8 0 15 -7 15 -15 0 -8 7 -15 15 -15 8 0 15 -7 15 -15 0 -8 7 -15 15 -15 8 0 15 -4 15 -9 0 -5 14 -12 30 -16 17 -4 30 -10 30 -15 0 -5 25 -12 55 -15 30 -4 55 -11 55 -16 0 -5 20 -9 45 -9 25 0 45 5 45 10 0 6 -7 10 -15 10 -8 0 -15 6 -15 14 0 8 -11 17 -25 20 -14 4 -25 11 -25 16 0 6 -6 10 -14 10 -8 0 -17 14 -21 30 -4 17 -13 30 -21 30 -8 0 -14 7 -14 15 0 8 -4 15 -10 15 -5 0 -10 7 -10 15 0 8 -9 23 -20 32 -11 10 -20 23 -20 30 0 7 -4 13 -9 13 -5 0 -13 26 -17 58 -4 31 -11 60 -17 64 -15 9 -14 251 1 256 7 2 12 23 12 47 0 25 6 50 15 59 8 8 15 26 15 41 0 14 6 28 14 31 8 3 17 16 20 30 4 13 11 24 16 24 6 0 10 7 10 15 0 9 6 18 14 21 8 3 17 16 20 30 4 13 11 24 16 24 6 0 10 7 10 15 0 8 7 15 15 15 8 0 15 7 15 15 0 8 7 15 15 15 10 0 15 10 15 30 0 20 5 30 15 30 9 0 15 9 15 25 0 16 6 25 15 25 10 0 15 10 15 29 0 16 6 31 15 35 11 4 15 22 15 76 0 56 -3 70 -15 70 -8 0 -15 7 -15 15 0 8 -7 15 -15 15 -8 0 -15 7 -15 15 0 12 13 15 60 15 47 0 60 -3 60 -15 0 -8 4 -15 10 -15 13 0 50 -32 50 -43 0 -5 7 -16 16 -25 14 -13 16 -36 12 -146 -3 -89 -8 -131 -16 -134 -7 -2 -12 -22 -12 -48 0 -32 -4 -44 -15 -44 -12 0 -15 -15 -15 -75 0 -76 13 -100 25 -45 4 17 10 30 15 30 5 0 11 14 15 30 4 17 11 30 16 30 5 0 9 6 9 13 0 7 9 20 20 30 11 9 20 24 20 32 0 8 5 15 10 15 6 0 10 7 10 15 0 8 6 15 14 15 8 0 17 11 20 25 4 14 11 25 16 25 6 0 10 7 10 15 0 9 7 18 15 21 8 4 15 12 15 20 0 8 7 14 15 14 10 0 15 10 15 30 0 20 5 30 15 30 10 0 15 10 15 30 0 20 5 30 15 30 11 0 15 11 15 39 0 23 5 41 12 43 9 3 14 34 16 91 2 48 8 87 13 87 5 0 9 38 9 85 0 50 -4 85 -10 85 -5 0 -10 20 -10 45 0 33 -4 45 -15 45 -8 0 -15 7 -15 15 0 8 -7 15 -15 15 -8 0 -15 6 -15 14 0 8 -6 16 -12 19 -8 2 -9 8 -4 13 5 5 11 4 13 -3 3 -8 25 -13 59 -13 41 0 54 -4 54 -15 0 -8 9 -15 20 -15 11 0 20 -7 20 -15 0 -8 7 -15 15 -15 8 0 15 -5 15 -11 0 -6 14 -24 30 -41 17 -16 30 -35 30 -43 0 -7 7 -15 15 -19 8 -3 15 -12 15 -21 0 -8 4 -15 10 -15 5 0 13 -12 16 -27 4 -15 13 -34 21 -41 7 -7 13 -20 13 -28 0 -8 4 -14 9 -14 5 0 12 -13 16 -30 4 -16 10 -30 14 -30 5 0 11 -19 14 -42 3 -24 11 -44 16 -46 6 -2 11 -28 11 -58 0 -39 4 -56 15 -60 13 -5 15 -40 15 -224 0 -164 -3 -219 -12 -222 -8 -3 -14 -34 -16 -89 -3 -46 -8 -87 -13 -90 -6 -3 -12 -22 -16 -42 -4 -30 -3 -37 11 -37 9 0 16 7 16 15 0 8 7 15 15 15 8 0 15 7 15 15 0 8 7 15 15 15 8 0 15 7 15 15 0 8 4 15 9 15 5 0 12 12 15 26 4 15 14 33 21 41 8 8 15 23 15 33 0 10 5 20 12 22 9 3 11 56 10 201 -2 169 0 198 13 203 8 3 15 12 15 20 0 8 9 14 20 14 11 0 20 4 20 9 0 5 10 13 23 17 12 4 25 11 29 17 3 6 26 11 50 11 42 1 43 0 40 -29 -2 -16 -8 -31 -13 -33 -11 -5 -12 -82 0 -82 4 0 11 -19 14 -41 3 -23 10 -45 15 -48 5 -3 12 -24 15 -46 4 -22 11 -41 17 -43 5 -2 10 -15 10 -28 0 -14 7 -27 15 -30 9 -4 15 -19 15 -35 0 -19 5 -29 15 -29 13 0 15 -31 15 -215 0 -184 -2 -215 -15 -215 -10 0 -15 -11 -15 -35 0 -24 -5 -35 -15 -35 -9 0 -15 -9 -15 -24 0 -13 -7 -26 -15 -30 -8 -3 -15 -12 -15 -21 0 -8 -4 -15 -10 -15 -5 0 -12 -11 -16 -25 -3 -14 -12 -25 -20 -25 -8 0 -14 -7 -14 -15 0 -8 -7 -15 -15 -15 -8 0 -15 -7 -15 -15 0 -8 -7 -15 -15 -15 -8 0 -15 -7 -15 -15 0 -8 -7 -15 -15 -15 -8 0 -15 -7 -15 -15 0 -9 -9 -15 -25 -15 -16 0 -25 -6 -25 -15 0 -8 -9 -15 -20 -15 -11 0 -20 -4 -20 -10 0 -6 33 -10 80 -10 44 0 80 4 80 9 0 5 25 13 55 16 37 5 55 12 55 21 0 8 7 14 15 14 8 0 15 5 15 10 0 6 6 10 14 10 19 0 76 57 76 76 0 8 5 14 10 14 6 0 10 6 10 14 0 8 8 22 18 32 16 17 17 80 17 1052 0 819 -3 1036 -12 1039 -7 3 -13 10 -13 17 0 7 -12 26 -27 42 l-27 29 -820 1 c-452 1 -829 0 -838 -3z"/>
</g>
</svg>