<svg xmlns="http://www.w3.org/2000/svg" width="300" height="110" viewBox="180 45 300 110" fill="none">
<path transform="translate(209,-140)" d="M223.157 221.813C225.972 221.813 228.148 222.439 229.687 223.692C231.249 224.945 232.029 226.824 232.029 229.33C232.029 232.033 231.161 234.077 229.424 235.461C227.687 236.846 225.312 237.538 222.3 237.538H211.383V214.461H217.814V221.813H223.157ZM221.871 232.857C222.97 232.857 223.839 232.56 224.476 231.967C225.136 231.374 225.466 230.538 225.466 229.461C225.466 228.363 225.136 227.593 224.476 227.154C223.839 226.692 222.97 226.461 221.871 226.461H217.814V232.857H221.871ZM234.569 237.538V214.461H241V237.538H234.569Z" fill="black"/>
<path transform="translate(209,-140)" d="M179.625 237.538V214.461H185.001L194.533 230.154H191.697L201.03 214.461H206.406L206.472 237.538H200.437L200.404 223.593H201.426L194.467 235.264H191.565L184.408 223.593H185.628V237.538H179.625Z" fill="black"/>
<path transform="translate(209,-140)" d="M163.372 223.395H174.091V228.275H163.372V223.395ZM163.834 232.494H175.905V237.538H157.37V214.461H175.476V219.505H163.834V232.494Z" fill="black"/>
<path transform="translate(209,-140)" d="M140.87 237.538V218.187L142.321 219.637H133.779V214.461H154.359V219.637H145.85L147.301 218.187V237.538H140.87Z" fill="black"/>
<path transform="translate(209,-140)" d="M123.074 238C121.249 238 119.556 237.714 117.995 237.143C116.456 236.549 115.115 235.714 113.971 234.637C112.85 233.56 111.971 232.297 111.333 230.846C110.695 229.374 110.376 227.758 110.376 226C110.376 224.242 110.695 222.637 111.333 221.187C111.971 219.714 112.85 218.44 113.971 217.363C115.115 216.286 116.456 215.462 117.995 214.89C119.556 214.297 121.249 214 123.074 214C125.207 214 127.109 214.374 128.78 215.121C130.473 215.868 131.88 216.945 133.002 218.352L128.846 222.11C128.098 221.231 127.274 220.56 126.372 220.099C125.493 219.637 124.503 219.407 123.404 219.407C122.459 219.407 121.59 219.56 120.799 219.868C120.007 220.176 119.325 220.626 118.754 221.22C118.204 221.791 117.764 222.484 117.434 223.297C117.127 224.11 116.973 225.011 116.973 226C116.973 226.989 117.127 227.89 117.434 228.703C117.764 229.516 118.204 230.22 118.754 230.813C119.325 231.385 120.007 231.824 120.799 232.132C121.59 232.44 122.459 232.593 123.404 232.593C124.503 232.593 125.493 232.363 126.372 231.901C127.274 231.44 128.098 230.769 128.846 229.89L133.002 233.648C131.88 235.033 130.473 236.11 128.78 236.879C127.109 237.626 125.207 238 123.074 238Z" fill="black"/>
<path transform="translate(209,-140)" d="M84.7722 237.538V214.461H91.2036V228.011L100.735 214.461H106.87V237.538H100.438V224.022L90.9397 237.538H84.7722Z" fill="black"/>
<path transform="translate(209,-140)" d="M71.8953 238C70.0703 238 68.3773 237.714 66.8162 237.143C65.2771 236.549 63.9358 235.714 62.7925 234.637C61.6711 233.56 60.7916 232.297 60.154 230.846C59.5163 229.374 59.1975 227.758 59.1975 226C59.1975 224.242 59.5163 222.637 60.154 221.187C60.7916 219.714 61.6711 218.44 62.7925 217.363C63.9358 216.286 65.2771 215.462 66.8162 214.89C68.3773 214.297 70.0703 214 71.8953 214C74.0281 214 75.93 214.374 77.6011 215.121C79.2941 215.868 80.7013 216.945 81.8227 218.352L77.667 222.11C76.9194 221.231 76.0949 220.56 75.1934 220.099C74.3139 219.637 73.3245 219.407 72.2251 219.407C71.2796 219.407 70.4111 219.56 69.6196 219.868C68.828 220.176 68.1464 220.626 67.5748 221.22C67.0251 221.791 66.5853 222.484 66.2555 223.297C65.9477 224.11 65.7938 225.011 65.7938 226C65.7938 226.989 65.9477 227.89 66.2555 228.703C66.5853 229.516 67.0251 230.22 67.5748 230.813C68.1464 231.385 68.828 231.824 69.6196 232.132C70.4111 232.44 71.2796 232.593 72.2251 232.593C73.3245 232.593 74.3139 232.363 75.1934 231.901C76.0949 231.44 76.9194 230.769 77.667 229.89L81.8227 233.648C80.7013 235.033 79.2941 236.11 77.6011 236.879C75.93 237.626 74.0281 238 71.8953 238Z" fill="black"/>
<path transform="translate(209,-140)" d="M26.604 237.538V214.461H45.898V219.505H33.0354V223.231H39.005C41.8194 223.231 43.9631 223.824 45.4363 225.011C46.9315 226.198 47.679 227.912 47.679 230.154C47.679 232.461 46.8435 234.275 45.1725 235.593C43.5014 236.89 41.1597 237.538 38.1474 237.538H26.604ZM33.0354 232.857H37.7187C38.7961 232.857 39.6206 232.637 40.1923 232.198C40.7859 231.758 41.0828 231.132 41.0828 230.319C41.0828 228.692 39.9614 227.879 37.7187 227.879H33.0354V232.857Z" fill="black"/>
<path transform="translate(209,-140)" d="M0 237.538V214.461H21.6687V237.538H15.2044V218.187L16.6555 219.637H5.01315L6.43135 218.187V237.538H0Z" fill="black"/>
<rect x="241" y="115" width="160" height="8" fill="#494949"/>
<rect x="241" y="115" width="80" height="8" fill="#8B0000"/>
</svg>