<svg width="32" height="33" viewBox="0 0 32 33" fill="none"
     xmlns="http://www.w3.org/2000/svg">
    <g clip-path="url(#clip0_202_1293)">
        <path fill-rule="evenodd" clip-rule="evenodd"
              d="M26.3693 6.85181C26.6988 6.71313 27.0595 6.6653 27.4137 6.7133C27.768 6.7613 28.1029 6.90337 28.3836 7.12472C28.6643 7.34608 28.8805 7.63863 29.0098 7.97192C29.1391 8.30521 29.1767 8.66706 29.1187 9.01981L26.0947 27.3625C25.8013 29.1318 23.86 30.1465 22.2373 29.2651C20.88 28.5278 18.864 27.3918 17.0507 26.2065C16.144 25.6131 13.3667 23.7131 13.708 22.3611C14.0013 21.2051 18.668 16.8611 21.3347 14.2785C22.3813 13.2638 21.904 12.6785 20.668 13.6118C17.5987 15.9291 12.6707 19.4531 11.0413 20.4451C9.60399 21.3198 8.85465 21.4691 7.95865 21.3198C6.32399 21.0478 4.80799 20.6265 3.57065 20.1131C1.89865 19.4198 1.97999 17.1211 3.56932 16.4518L26.3693 6.85181Z"
              fill="url(#paint0_linear_202_1293)"/>
    </g>
    <defs>
        <linearGradient id="paint0_linear_202_1293" x1="1342.27" y1="6.69519" x2="1342.27"
                        y2="2296.02" gradientUnits="userSpaceOnUse">
            <stop stop-color="#2AABEE"/>
            <stop offset="1" stop-color="#229ED9"/>
        </linearGradient>
        <clipPath id="clip0_202_1293">
            <rect width="32" height="32" fill="white" transform="translate(0 0.94519)"/>
        </clipPath>
    </defs>
</svg>