<svg width="32" height="33" viewBox="0 0 32 33" fill="none" xmlns="http://www.w3.org/2000/svg">
    <path d="M16.0013 3.61182C23.3653 3.61182 29.3347 9.58115 29.3347 16.9451C29.3347 24.3091 23.3653 30.2785 16.0013 30.2785C13.645 30.2823 11.3302 29.6587 9.29465 28.4718L2.67332 30.2785L4.47599 23.6545C3.28811 21.6183 2.66405 19.3025 2.66799 16.9451C2.66799 9.58115 8.63732 3.61182 16.0013 3.61182ZM11.4573 10.6785L11.1907 10.6891C11.018 10.6997 10.8493 10.745 10.6947 10.8225C10.55 10.9044 10.418 11.0068 10.3027 11.1265C10.1427 11.2771 10.052 11.4078 9.95465 11.5345C9.46148 12.1757 9.19595 12.9629 9.19999 13.7718C9.20265 14.4251 9.37332 15.0611 9.63999 15.6558C10.1853 16.8585 11.0827 18.1318 12.2667 19.3118C12.552 19.5958 12.832 19.8811 13.1333 20.1465C14.6045 21.4418 16.3577 22.3759 18.2533 22.8745L19.0107 22.9905C19.2573 23.0038 19.504 22.9851 19.752 22.9731C20.1403 22.9531 20.5195 22.848 20.8627 22.6651C21.0373 22.5752 21.2077 22.4773 21.3733 22.3718C21.3733 22.3718 21.4307 22.3345 21.54 22.2518C21.72 22.1185 21.8307 22.0238 21.98 21.8678C22.0907 21.7531 22.1867 21.6185 22.26 21.4651C22.364 21.2478 22.468 20.8331 22.5107 20.4878C22.5427 20.2238 22.5333 20.0798 22.5293 19.9905C22.524 19.8478 22.4053 19.6998 22.276 19.6371L21.5 19.2891C21.5 19.2891 20.34 18.7838 19.6307 18.4611C19.5564 18.4287 19.4769 18.4102 19.396 18.4065C19.3048 18.3971 19.2126 18.4074 19.1257 18.4366C19.0387 18.4658 18.959 18.5133 18.892 18.5758C18.8853 18.5731 18.796 18.6491 17.832 19.8171C17.7767 19.8915 17.7004 19.9477 17.6131 19.9786C17.5257 20.0094 17.4311 20.0136 17.3413 19.9905C17.2545 19.9672 17.1694 19.9378 17.0867 19.9025C16.9213 19.8331 16.864 19.8065 16.7507 19.7585C15.9854 19.4245 15.2769 18.9733 14.6507 18.4211C14.4827 18.2745 14.3267 18.1145 14.1667 17.9598C13.6421 17.4575 13.185 16.8892 12.8067 16.2691L12.728 16.1425C12.6715 16.0574 12.6258 15.9656 12.592 15.8691C12.5413 15.6731 12.6733 15.5158 12.6733 15.5158C12.6733 15.5158 12.9973 15.1611 13.148 14.9691C13.2947 14.7825 13.4187 14.6011 13.4987 14.4718C13.656 14.2185 13.7053 13.9585 13.6227 13.7571C13.2493 12.8451 12.8627 11.9371 12.4653 11.0358C12.3867 10.8571 12.1533 10.7291 11.9413 10.7038C11.8693 10.6958 11.7973 10.6878 11.7253 10.6825C11.5463 10.6736 11.3668 10.6754 11.188 10.6878L11.4573 10.6785Z"
          fill="url(#paint0_linear_202_1297)"/>
    <defs>
        <linearGradient id="paint0_linear_202_1297" x1="1336" y1="2670.28" x2="1336" y2="3.61182"
                        gradientUnits="userSpaceOnUse">
            <stop stop-color="#1FAF38"/>
            <stop offset="1" stop-color="#60D669"/>
        </linearGradient>
    </defs>
</svg>